<?xml version="1.0" standalone="no"?>
<!DOCTYPE svg PUBLIC "-//W3C//DTD SVG 1.1//EN" "http://www.w3.org/Graphics/SVG/1.1/DTD/svg11.dtd" >
<svg xmlns="http://www.w3.org/2000/svg" xmlns:xlink="http://www.w3.org/1999/xlink" version="1.1">
<metadata></metadata>
<defs>
<font id="italianaregular" horiz-adv-x="1273" >
<font-face units-per-em="2048" ascent="1638" descent="-410" />
<missing-glyph horiz-adv-x="612" />
<glyph horiz-adv-x="0" />
<glyph horiz-adv-x="682" />
<glyph unicode=" "  horiz-adv-x="612" />
<glyph unicode="&#x09;" horiz-adv-x="612" />
<glyph unicode="&#xa0;" horiz-adv-x="612" />
<glyph unicode="!" horiz-adv-x="577" d="M207 170q0 37 24.5 61.5t61.5 24.5t62.5 -24.5t25.5 -61.5t-25.5 -62.5t-62.5 -25.5t-61.5 25.5t-24.5 62.5zM219 1536h143l-40 -1075h-62z" />
<glyph unicode="&#x22;" horiz-adv-x="663" d="M180 1532l66 4l-31 -375h-27zM426 1532l66 4l-31 -375h-27z" />
<glyph unicode="#" horiz-adv-x="1228" d="M57 520l2 17h191l80 452h-191l2 17h191l76 428h163l-75 -428h249l76 428h164l-76 -428h238l-2 -17h-238l-80 -452h238l-2 -17h-240l-86 -497h-164l86 497h-249l-86 -497h-164l86 497h-189zM414 537h250l79 452h-249z" />
<glyph unicode="$" horiz-adv-x="1193" d="M154 123l10 16q67 -52 175 -86.5t212 -34.5q39 0 59 2v515q-173 58 -237 90q-157 80 -188 208q-9 35 -9 76q0 63 23 119.5t69 103t125 74t182 27.5h35v199h21v-201q178 -9 358 -68l-8 -20q-65 25 -170.5 46.5t-179.5 24.5v-540h1l1 -1h1h1l2 -1q179 -60 254 -104 q165 -96 173 -263l1 -20q0 -75 -35 -130.5t-97.5 -87.5t-137 -48.5t-164.5 -18.5v-121h-21v119h-26q-252 0 -430 125zM281 956q0 -46 19 -85t45.5 -65t74.5 -51t87.5 -39.5t102.5 -35.5v534q-147 -3 -238 -71t-91 -187zM631 20q145 10 237.5 60t92.5 143q0 51 -19 93.5 t-46.5 72t-75 56.5t-88.5 43.5t-101 37.5v-506z" />
<glyph unicode="%" horiz-adv-x="1337" d="M143 819q0 85 77.5 145t189.5 60q119 0 192.5 -48t73.5 -157q0 -84 -79 -144.5t-187 -60.5q-267 0 -267 205zM266 819q0 -93 40 -140.5t104 -47.5q59 0 101 55t42 133q0 92 -40.5 140.5t-102.5 48.5q-60 0 -102 -55.5t-42 -133.5zM287 0l717 1024h20l-717 -1024h-20z M645 205q0 85 77 145t189 60q119 0 193 -48t74 -157q0 -84 -79.5 -144.5t-187.5 -60.5q-266 0 -266 205zM768 205q0 -93 40 -141t103 -48q59 0 101.5 55.5t42.5 133.5q0 92 -41 140t-103 48q-60 0 -101.5 -55t-41.5 -133z" />
<glyph unicode="&#x26;" horiz-adv-x="1843" d="M47 547q0 102 28 195.5t77.5 165.5t113.5 126t138 82.5t149 28.5q69 0 125 -12t93 -31.5t65 -48t43.5 -55.5t25.5 -60.5t13 -58t4 -52.5l340 269l14 -13l-1016 -798q51 -124 146.5 -194.5t228.5 -70.5q125 0 244 48.5t212.5 127.5t173.5 183t134.5 210.5t89.5 213.5h-229 v20h505v-20h-112q-42 -114 -108.5 -226t-161.5 -217t-205.5 -184.5t-248.5 -127.5t-282 -48q-53 0 -106 6.5t-113.5 23.5t-114 43.5t-103 70t-85 98.5t-57 133.5t-21.5 171.5zM211 557l4 -90q9 -89 37 -168l508 399q-2 232 -46.5 329t-156.5 97q-77 0 -138 -36.5t-99 -94 t-63.5 -134.5t-35.5 -151.5t-10 -150.5z" />
<glyph unicode="'" horiz-adv-x="204" d="M57 1532l66 4l-31 -375h-26z" />
<glyph unicode="(" horiz-adv-x="614" d="M143 594q5 136 20.5 255t37.5 205.5t50 159.5t57 121.5t58.5 86t55 58.5t45.5 34.5t31 17.5l12 4l12 -27q-4 -2 -11.5 -7t-28.5 -30.5t-40.5 -62.5t-43.5 -109t-42.5 -163t-32 -233t-16.5 -310q-4 -173 4.5 -319t23.5 -243t37 -175.5t41.5 -121t41.5 -73.5t33 -40.5 t20 -15.5l2 -1l-8 -15q-16 5 -30.5 11t-57 36t-76 70.5t-76 120t-69 178.5t-42 252.5t-8.5 335.5z" />
<glyph unicode=")" horiz-adv-x="614" d="M78 1509l12 27q7 -2 19.5 -7.5t48 -32t68.5 -64.5t74 -112.5t72 -168t55 -239t30 -318.5q7 -182 -8.5 -335.5t-42 -252.5t-69 -178.5t-76 -120t-76 -70.5t-57 -36t-30.5 -11l-8 15l2 1q84 56 138 256q73 268 63 732q-3 168 -16.5 309.5t-32.5 233t-41.5 163t-44.5 109.5 t-40 62t-29 31z" />
<glyph unicode="*" horiz-adv-x="1138" d="M211 1065v16h342l-242 242l11 10l241 -241v342h17v-342l241 241l10 -10l-241 -242h342v-16h-342l241 -242l-10 -10l-241 242v-342h-17v342l-241 -242l-11 10l242 242h-342z" />
<glyph unicode="+" horiz-adv-x="1339" d="M217 526v17h338v399h164v-399h358v-17h-358v-444h-164v444h-338z" />
<glyph unicode="," horiz-adv-x="188" d="M25 -205l53 371l65 4l-92 -375h-26z" />
<glyph unicode="-" horiz-adv-x="819" d="M94 584v16h619v-16h-619z" />
<glyph unicode="." horiz-adv-x="225" d="M57 57q0 28 19 47t47 19q27 0 46 -19.5t19 -46.5q0 -26 -19.5 -45.5t-45.5 -19.5q-27 0 -46.5 19t-19.5 46z" />
<glyph unicode="/" horiz-adv-x="1005" d="M205 0l514 1534h20l-514 -1534h-20z" />
<glyph unicode="0" horiz-adv-x="1323" d="M102 512q0 106 44 202t118.5 166t177.5 111t217 41q120 0 218 -28.5t176 -88.5t121 -162.5t43 -240.5q0 -141 -74.5 -261t-203 -189.5t-280.5 -69.5q-120 0 -218 28.5t-175.5 88.5t-120.5 162.5t-43 240.5zM266 512q0 -133 30.5 -232t85 -157.5t124 -86.5t153.5 -28 q107 0 197.5 67.5t143.5 183.5t53 253q0 133 -30.5 232t-85.5 157.5t-124.5 86.5t-153.5 28q-107 0 -197.5 -67.5t-143 -183.5t-52.5 -253z" />
<glyph unicode="1" horiz-adv-x="817" d="M205 0v16h123v992h-97v16h357v-16h-96v-992h122v-16h-409z" />
<glyph unicode="2" horiz-adv-x="899" d="M82 0q128 98 247 254t187 300t68 228q0 23 -2 46t-10.5 57.5t-23 60t-44 44t-68.5 18.5q-44 0 -82.5 -8t-70 -24.5t-48.5 -28t-42.5 -33t-28.5 -23.5l-10 12q69 61 132.5 91t149.5 30q155 0 233.5 -61.5t78.5 -169.5q0 -139 -145.5 -386.5t-323.5 -390.5h395q15 0 31 1.5 t47.5 8t56.5 25.5t35 47l12 -6q-1 -4 -3 -10t-14 -22t-30 -28t-53.5 -22t-81.5 -10h-592z" />
<glyph unicode="3" horiz-adv-x="768" d="M80 -188q56 15 113.5 45t111 75t95.5 98.5t67 120.5t25 136q0 112 -48 169t-112 64q-38 -13 -62 -16l-8 14q106 33 177 115t71 194q0 81 -32 131t-101 50q-120 0 -256 -58l-8 15q136 59 270 59q15 0 29.5 -0.5t45.5 -4.5t57 -11t57 -21.5t52 -35t35.5 -52.5t14.5 -72 q0 -56 -26.5 -105t-72 -84t-94.5 -59.5t-106 -43.5q43 -4 81.5 -15t75.5 -31t63.5 -47.5t43 -67.5t16.5 -89q0 -77 -37.5 -149.5t-97.5 -127t-136.5 -99.5t-153 -73t-148.5 -41z" />
<glyph unicode="4" horiz-adv-x="909" d="M61 0l734 1024l14 -8q-304 -421 -715 -1000h455l67 566h164l-67 -566h96v-16h-98l-25 -205h-162l23 205h-486z" />
<glyph unicode="5" horiz-adv-x="712" d="M43 -186l22 12q22 12 58 35t78.5 55t85.5 77.5t79 98t58 121t22 141.5q0 305 -299 305l37 365h361v-160h-357l-20 -188q48 -1 92 -6t97.5 -17t96 -35t79 -56t57 -84.5t20.5 -115.5q0 -85 -38 -164.5t-96.5 -139.5t-136.5 -113.5t-150 -88.5t-146 -61v19z" />
<glyph unicode="6" horiz-adv-x="1024" d="M82 473q0 107 26 209.5t89 203t157 175.5t241 121.5t329 46.5l-2 -15q-128 0 -232 -30t-174.5 -80.5t-122 -122t-79.5 -148.5t-42 -167q26 48 91.5 92.5t171.5 44.5q51 0 102.5 -12t103 -40t91 -69.5t64 -106t24.5 -143.5q0 -84 -27.5 -161t-80 -140t-140 -101 t-197.5 -38q-393 0 -393 481zM246 434q-4 -94 8.5 -168.5t36 -122t56 -78.5t67 -44t71.5 -13q117 0 194 123t77 309q0 93 -21 163t-56.5 108.5t-76.5 56.5t-88 18q-53 0 -103 -23.5t-81 -54.5t-49.5 -57.5t-18.5 -36.5q-12 -88 -16 -180z" />
<glyph unicode="7" horiz-adv-x="847" d="M102 866v160h674q-222 -521 -351.5 -804.5t-213.5 -426.5l-16 6q90 154 193 374.5t300 688.5z" />
<glyph unicode="8" horiz-adv-x="1105" d="M121.5 321.5q-2.5 26.5 1.5 45.5q15 202 319 340q-110 30 -167.5 91t-51.5 169q5 84 62.5 145.5t137 89t167.5 27.5q75 0 139.5 -13t121.5 -42t87.5 -82t26.5 -125q-12 -211 -248 -334q135 -29 203 -87.5t69 -178.5q0 -15 -2.5 -36.5t-14 -59t-30 -73t-54.5 -74 t-83.5 -67t-122 -47t-164.5 -18.5q-73 0 -132.5 12t-99 32.5t-71 47.5t-47.5 57.5t-28.5 62t-14 61.5t-4 56.5zM285 367q-2 -59 4 -109t16.5 -85t29 -63t34 -45t38.5 -29t36.5 -17t34.5 -8t25 -3h15q63 0 113.5 20t82 51.5t55 69.5t34 76.5t16.5 70t7 51.5l1 20 q4 64 -12.5 113.5t-42 78.5t-69 52.5t-79 34.5t-87 26.5t-78.5 25.5q-21 -18 -32 -27.5t-40 -43t-46.5 -65.5t-34.5 -85t-21 -110zM387 967q-4 -72 8.5 -124t33.5 -79.5t56 -47t67 -28t75.5 -22t72.5 -27.5q93 126 103 328q2 35 -2 66.5t-18 65t-37 58t-63.5 40t-94.5 15.5 q-92 0 -143 -71.5t-58 -173.5z" />
<glyph unicode="9" horiz-adv-x="1024" d="M82 -203l2 15q128 0 232 30t174 80.5t121.5 122t79.5 148.5t42 167q-11 -20 -29 -40.5t-49 -43.5t-79 -38t-105 -15q-51 0 -102.5 12t-103 40t-91 69.5t-64 106t-24.5 143.5q0 84 27 161t79.5 140t140 101t197.5 38q394 0 394 -481q0 -107 -26 -209.5t-89 -203 t-157 -175.5t-241 -121.5t-329 -46.5zM250 586q0 -93 21 -163t56.5 -108.5t76.5 -56.5t88 -18q53 0 103 23.5t80.5 54.5t49 57.5t18.5 36.5q13 99 17 180q4 94 -8.5 168.5t-36 122t-56.5 78.5t-67.5 44t-71.5 13q-117 0 -193.5 -123t-76.5 -309z" />
<glyph unicode=":" horiz-adv-x="512" d="M170 57q0 28 19 47t47 19q26 0 45.5 -19.5t19.5 -46.5q0 -26 -19.5 -45.5t-45.5 -19.5q-28 0 -47 19t-19 46zM170 895q0 28 19 47t47 19q26 0 45.5 -19.5t19.5 -46.5q0 -26 -19.5 -46t-45.5 -20q-27 0 -46.5 19.5t-19.5 46.5z" />
<glyph unicode=";" horiz-adv-x="512" d="M147 -205l54 371l65 4l-92 -375h-27zM170 895q0 28 19 47t47 19q26 0 45.5 -19.5t19.5 -46.5q0 -26 -19.5 -46t-45.5 -20q-27 0 -46.5 19.5t-19.5 46.5z" />
<glyph unicode="&#x3c;" horiz-adv-x="1165" d="M205 614l721 410l14 -14l-600 -398l600 -391l-14 -16z" />
<glyph unicode="=" horiz-adv-x="1513" d="M299 262v17h930v-17h-930zM299 717v16h930v-16h-930z" />
<glyph unicode="&#x3e;" horiz-adv-x="1165" d="M205 221l600 391l-600 398l14 14l721 -410l-721 -409z" />
<glyph unicode="?" horiz-adv-x="882" d="M74 1393q165 51 315 51q184 0 290.5 -83t106.5 -249q0 -67 -29 -130t-75 -115.5t-101.5 -105t-111.5 -107t-102 -111.5t-75.5 -130t-29.5 -151h-20q0 79 21 153t55 133t74.5 115t81.5 109t75 105.5t55 114t21 124.5q0 138 -67 224.5t-193 86.5q-43 0 -113.5 -11.5 t-119.5 -23.5l-50 -12zM190 57q0 -27 19 -46t47 -19q26 0 46 19.5t20 45.5q0 27 -19.5 46.5t-46.5 19.5q-28 0 -47 -19t-19 -47z" />
<glyph unicode="@" horiz-adv-x="2191" d="M164 512q0 187 72.5 357.5t195 294.5t293 197t358.5 73q157 0 292 -32t252 -102.5t199.5 -176.5t129.5 -261.5t47 -349.5q0 -95 -16.5 -172t-43 -129t-65.5 -91t-78 -61t-87.5 -35.5t-86.5 -18t-82 -5.5q-71 0 -121.5 15t-71.5 36t-32 42.5t-11 36.5l1 15v29 q-36 -73 -114.5 -127.5t-186.5 -54.5q-290 0 -314 233q-2 39 -1.5 74.5t23 66.5t63 55.5t118.5 42t190 25.5q124 11 222 3v339q0 8 -0.5 20t-10 44t-27.5 56.5t-58.5 44.5t-96.5 20q-114 0 -209 -26.5t-149 -55.5l-8 14l12 6q13 7 28.5 13.5t40 16t54.5 17.5t65 15.5 t78 11.5t88 4q86 0 150 -14.5t98.5 -35t55.5 -50t26.5 -52.5t5.5 -49v-686q0 -48 12 -75q12 -24 32 -36.5t34 -13.5h14q35 0 71 12.5t77.5 46.5t73 86.5t52.5 142.5t21 204q0 191 -39 344.5t-107 257t-164.5 172.5t-207 100t-238.5 31q-153 0 -293 -71.5t-241 -193 t-161 -289t-60 -351.5q0 -193 39 -346.5t107 -257t164 -172t206.5 -99t238.5 -30.5q162 0 344 80l13 -13q-52 -31 -152 -57.5t-205 -26.5q-158 0 -292 30t-251.5 99t-199.5 174t-129 262.5t-47 356.5zM838 225q4 -33 9 -58.5t17 -57t29.5 -52t47.5 -35t69 -14.5 q62 0 118.5 22.5t94 56.5t60.5 71t26 69v248q-123 10 -224 -2q-82 -10 -133 -29t-78 -50.5t-34.5 -71t-1.5 -97.5z" />
<glyph unicode="A" d="M61 0l613 1434l22 10l516 -1444h-174l-159 451h-598l-195 -451h-25zM289 471h583l-262 741z" />
<glyph unicode="B" horiz-adv-x="1167" d="M143 0v1417q224 15 396 17h25q106 0 189 -16q93 -18 152 -48t96.5 -75t52.5 -93.5t15 -105.5q0 -127 -74 -218.5t-235 -123.5q58 -6 104.5 -19t91 -38.5t74.5 -62t48 -94t18 -130.5q0 -203 -119.5 -306.5t-386.5 -103.5h-447zM313 20h277q182 0 259 96t77 296 q0 82 -16 141t-41.5 94t-67 55.5t-84 28t-101.5 8.5h-303v-719zM313 760h303q289 12 289 332q0 155 -85.5 238t-256.5 83q-118 0 -250 -14v-639z" />
<glyph unicode="C" horiz-adv-x="1263" d="M102 713q0 162 41 289t108.5 207.5t161.5 132.5t193 73t211 21q81 0 159 -14t116 -28l38 -14l-6 -20q-16 6 -43.5 15t-108 24.5t-155.5 15.5h-16q-24 0 -48 -2q-33 -3 -90 -18t-106 -41t-103.5 -79t-92.5 -124.5t-63.5 -184.5t-25.5 -253q0 -109 15 -202t39 -160t60 -121 t72 -88.5t81 -60t81 -38.5t78 -20.5t67 -9t52 -1.5q89 0 181.5 14t139.5 28l48 14l6 -21q-18 -6 -49.5 -15t-130 -24.5t-195.5 -15.5q-80 0 -151.5 9t-145 32t-134 59t-114.5 93t-90.5 130.5t-58 174.5t-21.5 223z" />
<glyph unicode="D" d="M143 0v1432h164q90 4 150 4q80 0 151.5 -9t144.5 -32t134 -59t114.5 -93t90 -130.5t58 -174.5t21.5 -223q0 -162 -41 -289t-108 -207.5t-161 -132.5t-193 -73t-211 -21q-101 0 -211 8h-103zM313 16q43 -4 144 -4q23 0 47 1t64 8.5t77 20.5t82 38.5t82.5 60.5t74 89.5 t61.5 121.5t40.5 160t15.5 203q0 109 -15 202t-39 160t-59.5 121t-71.5 88.5t-81 60t-81 38t-78.5 20t-66.5 9t-52 1.5q-79 0 -144 -6v-1393z" />
<glyph unicode="E" horiz-adv-x="1075" d="M143 0v1434h815v-21h-645v-614h598v-21h-598v-758h691v-20h-861z" />
<glyph unicode="F" horiz-adv-x="1030" d="M143 0v1434h815v-21h-645v-655h598v-21h-598v-737h-170z" />
<glyph unicode="G" horiz-adv-x="1329" d="M102 713q0 162 41 289t108.5 207.5t161.5 132.5t193 73t211 21q92 0 180.5 -14t130.5 -28l43 -14l-6 -20q-18 6 -49.5 15t-123 24.5t-175.5 15.5h-16q-23 0 -48 -2q-33 -3 -90 -18t-106 -41t-103.5 -79t-92.5 -124.5t-63.5 -184.5t-25.5 -253q0 -109 15 -202t39 -160 t60 -121t72 -88.5t81 -60t81 -38.5t78 -20.5t67 -9t52 -1.5q80 0 205 17v422h-248v20h506v-20h-88v-404q-18 -6 -49.5 -15t-130 -24.5t-195.5 -15.5q-80 0 -151.5 9t-145 32t-134 59t-114.5 93t-90.5 130.5t-58 174.5t-21.5 223z" />
<glyph unicode="H" horiz-adv-x="1210" d="M102 0v1434h170v-660h666v660h170v-1434h-170v754h-666v-754h-170z" />
<glyph unicode="I" horiz-adv-x="651" d="M143 0v20h95v1393h-95v21h365v-21h-100v-1393h100v-20h-365z" />
<glyph unicode="J" horiz-adv-x="600" d="M-41 39l6 16q97 -39 203 -39q69 0 93 59.5t24 192.5v1145h-193v21h365v-1164q0 -84 -16.5 -137t-54.5 -82.5t-88.5 -40t-129.5 -10.5q-109 0 -209 39z" />
<glyph unicode="K" horiz-adv-x="1230" d="M143 0v1434h170v-906l662 906l16 -15l-366 -499l544 -920h-190l-459 776l-207 -284v-492h-170z" />
<glyph unicode="L" horiz-adv-x="983" d="M143 0v1434h170v-1414h609v-20h-779z" />
<glyph unicode="M" horiz-adv-x="1626" d="M133 0l178 1434h68l430 -1325l428 1325h68l178 -1434h-170l-142 1147l-370 -1147h-129l-375 1133l-137 -1133h-27z" />
<glyph unicode="N" horiz-adv-x="1214" d="M133 0v1434h70l852 -1325v1325h26v-1434h-149l-772 1188v-1188h-27z" />
<glyph unicode="O" horiz-adv-x="1474" d="M102 682q0 189 49.5 335.5t138.5 238.5t208.5 139t265.5 47q102 0 190 -22.5t166 -75t133 -132t87 -199t32 -270.5q0 -190 -49 -335t-138.5 -235.5t-208.5 -135.5t-265 -45q-103 0 -190.5 22t-166 73t-133.5 129t-87 196.5t-32 269.5zM272 692q0 -182 35.5 -317 t99 -212.5t141.5 -114t173 -36.5q105 0 192 45t152 132.5t101 228t36 321.5t-35.5 316t-98.5 213t-142 115.5t-174 37.5q-104 0 -190 -44.5t-151.5 -132t-102 -228.5t-36.5 -324z" />
<glyph unicode="P" horiz-adv-x="1171" d="M143 0v1417q224 15 396 17h23q107 0 191 -16q93 -18 152 -51t96.5 -80.5t52.5 -99t15 -112.5q0 -64 -11 -121t-41.5 -117t-79.5 -102.5t-131.5 -70t-189.5 -27.5h-303v-637h-170zM313 657h303q289 12 289 414q0 164 -86 253t-256 89q-118 0 -250 -14v-742z" />
<glyph unicode="Q" horiz-adv-x="1474" d="M102 713q0 168 49 306.5t135 230t202 142t249 50.5q112 0 203 -20.5t173.5 -71.5t138 -132.5t88 -209t32.5 -295.5q0 -299 -146.5 -488t-381.5 -225q60 -14 118.5 -44t107.5 -66.5t102 -78t112.5 -79.5t126.5 -69t155.5 -50t188.5 -19v-20q-150 0 -275 14.5t-210 38.5 t-152 55.5t-109.5 66t-75 69t-54.5 66t-42.5 55.5t-44.5 38.5t-55 14.5q-113 0 -203.5 19.5t-173 69.5t-138 130t-88 207t-32.5 295zM272 717q0 -160 24 -283.5t65 -202.5t101 -129t127 -70t148 -20q97 0 181.5 47.5t147.5 135.5t99.5 222.5t36.5 299.5q0 704 -465 704 q-97 0 -181.5 -47.5t-147.5 -135t-99.5 -222t-36.5 -299.5z" />
<glyph unicode="R" horiz-adv-x="1230" d="M143 0v1417q224 15 396 17h25q106 0 189 -16q93 -18 152 -48t96.5 -75t52.5 -93.5t15 -105.5q0 -52 -8 -99t-29 -97.5t-55 -90t-89.5 -72t-127.5 -47.5l409 -690h-190l-401 678h-265v-678h-170zM313 698h303q289 12 289 394q0 155 -85.5 238t-256.5 83q-118 0 -250 -14 v-701z" />
<glyph unicode="S" horiz-adv-x="1054" d="M72 123l10 16q68 -53 175.5 -87t219.5 -34q77 0 147 18t128 53t92.5 95t34.5 138q0 67 -27 121.5t-72.5 92t-104 69t-123.5 58.5t-130.5 54.5t-124 62.5t-104 77.5t-72.5 105t-27 139.5q0 71 23 130.5t70.5 106t127.5 73t187 26.5q195 0 405 -70l-8 -20q-75 29 -183 50 t-190 21q-143 0 -235 -70t-92 -192q0 -63 27 -112t72 -81.5t104 -59.5t124 -50.5t130 -49.5t124 -62t104 -82.5t72 -116.5t27 -158q0 -87 -27 -155.5t-71.5 -111t-107.5 -70.5t-130 -39t-145 -11q-252 0 -430 125z" />
<glyph unicode="T" horiz-adv-x="1003" d="M61 1413v21h881v-21h-356v-1413h-170v1413h-355z" />
<glyph unicode="U" horiz-adv-x="1288" d="M143 614v820h170v-818q0 -151 20.5 -261.5t53 -175.5t84 -103.5t104 -51t121.5 -12.5q94 0 170 32.5t136 101.5t93 188.5t33 281.5v818h27v-820q0 -165 -35.5 -288t-100 -194.5t-145 -105.5t-178.5 -34q-71 0 -128.5 6.5t-116 24t-103 46.5t-84.5 77t-65.5 112t-40.5 154 t-15 202z" />
<glyph unicode="V" horiz-adv-x="1208" d="M61 1434h175l428 -1213l436 1008q2 5 5.5 14t10 34t8 48t-6 50.5t-25.5 45.5l16 13q3 -3 7.5 -8t14 -23.5t14 -40.5t0.5 -58t-20 -75l-524 -1229l-22 -10z" />
<glyph unicode="W" horiz-adv-x="1732" d="M61 1434h175l366 -1213l260 660l-174 553h174l367 -1213l395 1008q2 5 5.5 14t10 34t8 48t-6 50.5t-25.5 45.5l16 13q3 -3 7.5 -8t14.5 -23.5t14 -40.5t0.5 -58t-19.5 -75l-484 -1229l-22 -10l-271 858l-333 -848l-23 -10z" />
<glyph unicode="X" horiz-adv-x="1128" d="M61 1434h172l353 -607l307 607h25l-318 -631l467 -803h-172l-414 711l-358 -711h-27l371 733z" />
<glyph unicode="Y" horiz-adv-x="1091" d="M61 1434h175l391 -924l356 719q2 5 5.5 14t10 34t8 48t-6 50.5t-25.5 45.5l16 13q3 -3 7.5 -8t14.5 -23.5t14 -40.5t0.5 -58t-19.5 -75l-367 -744v-485h-170v440z" />
<glyph unicode="Z" horiz-adv-x="1116" d="M72 0v20l719 1393h-666v21h836v-21l-723 -1393h616h15.5t35.5 3.5t47.5 11t43.5 24.5t32 41l16 -8q-1 -4 -4 -10t-17 -22t-32.5 -28t-53 -22t-77.5 -10h-788z" />
<glyph unicode="[" horiz-adv-x="880" d="M178 -410v1946h436v-16h-272v-1913h272v-17h-436z" />
<glyph unicode="\" horiz-adv-x="1228" d="M281 1534h20l514 -1534h-20z" />
<glyph unicode="]" horiz-adv-x="880" d="M281 -393h272v1913h-272v16h436v-1946h-436v17z" />
<glyph unicode="^" horiz-adv-x="1146" d="M299 625l281 297l262 -277l-43 -41l-248 266l-238 -256z" />
<glyph unicode="_" horiz-adv-x="894" d="M162 0v16h553v-16h-553z" />
<glyph unicode="`" horiz-adv-x="612" d="M209 1454l147 -4l95 -289h-27z" />
<glyph unicode="a" horiz-adv-x="1062" d="M74 302q2 36 26 67.5t67 55.5t119 40.5t183 23.5q72 6 135 7q46 0 86 -4v339q0 4 0.5 10.5t-2 26t-8 37t-21 38.5t-37.5 36.5t-60 26t-87 10.5q-86 0 -187.5 -28t-148.5 -54l-8 14q1 0 17 8t30.5 14t40.5 16t54.5 17t63.5 14t77.5 11t87.5 4q85 0 148.5 -14.5t97.5 -35.5 t54.5 -50.5t26 -52.5t5.5 -48v-686q0 -37 9.5 -64t23.5 -39t28 -18.5t23 -7.5h10h63v-16h-63q-70 0 -120.5 15t-72 36t-33 42.5t-12.5 36.5v15v29q-19 -35 -40 -61t-58 -56.5t-94 -47.5t-129 -17q-259 0 -293 233q-2 25 -2 49q-1 14 0 28zM219 225q17 -217 182 -217 q109 0 196.5 75t92.5 144v248q-56 5 -107 5q-61 0 -116 -7q-81 -9 -132 -27.5t-78 -50t-35 -71.5q-5 -25 -4 -56q-1 -20 1 -43z" />
<glyph unicode="b" horiz-adv-x="1064" d="M82 43v1491h143v-764q15 42 46 86t74 84.5t101.5 66t120.5 25.5q211 0 313.5 -125.5t102.5 -361.5q0 -553 -537 -553q-157 0 -364 51zM225 55q123 -47 219 -47q396 0 396 539q0 469 -275 469q-66 0 -130 -34t-107.5 -83t-71.5 -100.5t-31 -89.5v-654z" />
<glyph unicode="c" horiz-adv-x="985" d="M82 500q0 249 135 390.5t344 141.5q118 0 217 -53.5t146 -161.5h-131q-31 100 -93.5 149.5t-138.5 49.5q-146 0 -243 -138.5t-97 -377.5q0 -253 89.5 -372.5t234.5 -119.5q181 0 323 62l6 -15q-144 -63 -329 -63q-77 0 -144 16.5t-126.5 55t-101.5 96t-66.5 144.5 t-24.5 196z" />
<glyph unicode="d" horiz-adv-x="1224" d="M82 475q0 266 129 411.5t387 145.5q122 0 244 -61v563h143v-1389q0 -37 9.5 -64t23.5 -39t28 -18.5t24 -7.5h9h64v-16h-125q-53 0 -90.5 15t-53 36t-24 42.5t-8.5 36.5v15v33q-39 -72 -129.5 -127t-212.5 -55q-418 9 -418 479zM225 475q0 -463 277 -463q137 0 235 74 t105 145v721q-145 64 -250 64q-182 0 -274.5 -142.5t-92.5 -398.5z" />
<glyph unicode="e" horiz-adv-x="1021" d="M82 500q0 249 135 390.5t344 141.5q62 0 119 -14t109 -46t90 -80q37 -46 59 -118q20 -65 20 -145v-15h-731q-6 -56 -6 -114q0 -253 89.5 -372.5t234.5 -119.5q204 0 364 62l6 -15q-163 -63 -370 -63q-77 0 -144 16.5t-126.5 55t-101.5 96t-66.5 144.5t-24.5 196zM229 631 h590q-1 101 -23.5 178t-59 120.5t-81 65t-94.5 21.5q-124 0 -215 -102t-117 -283z" />
<glyph unicode="f" horiz-adv-x="522" d="M72 1008v16h43v96q0 224 96 319t311 97v-16q-141 -3 -202.5 -96t-61.5 -304v-96h162v-16h-162v-1008h-143v1008h-43z" />
<glyph unicode="g" horiz-adv-x="1046" d="M72 475q0 266 129 411.5t387 145.5q193 0 387 -67v-990q0 -89 -15 -161t-38.5 -122t-58.5 -87.5t-71 -59t-80.5 -35t-82 -18t-80.5 -4.5q-73 0 -142 17t-120 44t-82.5 48.5t-54.5 42.5l14 12q177 -148 385 -148q47 0 85.5 11.5t76 43.5t63.5 83.5t41.5 136t15.5 196.5 v203q-39 -72 -129.5 -127t-212.5 -55q-417 9 -417 479zM215 475q0 -463 277 -463q71 0 135.5 22.5t106.5 56.5t68 71t29 69v723q-149 62 -249 62q-182 0 -274.5 -142.5t-92.5 -398.5z" />
<glyph unicode="h" horiz-adv-x="1138" d="M102 0v1534h144v-743q33 87 125 164t207 77q72 0 127.5 -10t90.5 -29t58.5 -41t35 -52t15.5 -56t4 -58v-641q0 -37 10 -64t23.5 -39t27.5 -18.5t24 -7.5h10h63v-16h-125q-53 0 -90.5 15t-53 36t-24 42.5t-8.5 36.5v15v643q0 33 -2.5 58t-13.5 59.5t-30 56.5t-56.5 38 t-88.5 16q-65 0 -128.5 -32t-106 -77.5t-68.5 -94.5t-26 -85v-727h-144z" />
<glyph unicode="i" horiz-adv-x="497" d="M102 1315q0 37 24.5 62.5t61.5 25.5t62.5 -25.5t25.5 -62.5t-25.5 -61.5t-62.5 -24.5t-61.5 24.5t-24.5 61.5zM115 130v15v879h143v-879q0 -37 9.5 -64t23.5 -39t28 -18.5t23 -7.5h10h64v-16h-125q-53 0 -90.5 15t-53 36t-24 42.5t-8.5 36.5z" />
<glyph unicode="j" horiz-adv-x="473" d="M-123 -473q100 -39 209 -39q79 0 129.5 10.5t88.5 40t54.5 82.5t16.5 137v1266h-144v-1268q0 -134 -29 -193t-116 -59q-106 0 -203 39zM217 1315q0 37 24.5 62.5t61.5 25.5t62.5 -25.5t25.5 -62.5t-25.5 -61.5t-62.5 -24.5t-61.5 24.5t-24.5 61.5z" />
<glyph unicode="k" horiz-adv-x="894" d="M102 0v1536h144v-1020l450 508h21l-334 -377l440 -647h-143l-379 557l-55 -63v-494h-144z" />
<glyph unicode="l" horiz-adv-x="477" d="M104 130v15v1389h144v-1389q0 -37 9.5 -64t23.5 -39t28 -18.5t23 -7.5h10h64v-16h-64q-72 0 -122.5 15t-72 36t-33 42.5t-10.5 36.5z" />
<glyph unicode="m" horiz-adv-x="1638" d="M82 0v1024h143v-231q33 87 121.5 163t200.5 76q61 0 108.5 -8t79 -19t53 -31.5t33 -38t17.5 -45.5t7 -46.5t1 -48.5q15 39 43 78.5t67 76t93 59.5t112 23q49 0 89 -5t69.5 -12.5t52 -21.5t37 -26t25 -32.5t15.5 -34t7.5 -38t3 -38t0.5 -38.5v-641q0 -37 9.5 -64t23.5 -39 t28 -18.5t23 -7.5h10h64v-16h-125q-53 0 -90.5 15t-53 36t-24 42.5t-8.5 36.5v15v643q0 96 -12 135q-32 92 -146 93q-63 0 -123.5 -31.5t-100.5 -77t-64.5 -94t-24.5 -84.5v-729h-144v788q0 95 -11 132q-30 95 -146 96q-50 0 -99.5 -20t-87 -51.5t-67.5 -69t-47 -74.5 t-19 -66v-735h-143z" />
<glyph unicode="n" horiz-adv-x="1077" d="M82 0v1024h143v-233q35 87 129 164t213 77q86 0 149 -15.5t97.5 -38t54.5 -57.5t25.5 -65.5t5.5 -69.5v-641q0 -37 9.5 -64t23.5 -39t28 -18.5t24 -7.5h9h64v-16h-125q-53 0 -90.5 15t-53 36t-24 42.5t-8.5 36.5v15v643q0 33 -2.5 58t-13.5 59.5t-30 56.5t-56.5 38 t-88.5 16q-67 0 -132.5 -32t-109.5 -77.5t-71 -94.5t-27 -85v-727h-143z" />
<glyph unicode="o" horiz-adv-x="1146" d="M82 500q0 249 140.5 390.5t359.5 141.5q80 0 150 -16.5t132 -55t106 -96t69.5 -144.5t25.5 -196q0 -249 -140.5 -390.5t-359.5 -141.5q-80 0 -150 16.5t-132 55t-106 96t-69.5 144.5t-25.5 196zM221 500q0 -130 26.5 -227t74.5 -154t108.5 -84t134.5 -27 q156 0 258.5 138.5t102.5 377.5q0 130 -26.5 227t-74.5 154t-108.5 84t-134.5 27q-156 0 -258.5 -138.5t-102.5 -377.5z" />
<glyph unicode="p" horiz-adv-x="1085" d="M102 -512v1536h144v-254q15 42 46 86t74 84.5t101.5 66t120.5 25.5q211 0 313.5 -125.5t102.5 -361.5q0 -553 -537 -553q-98 0 -221 45v-549h-144zM246 55q123 -47 219 -47q395 0 395 539q0 469 -274 469q-66 0 -130 -34t-107.5 -83t-71.5 -100.5t-31 -89.5v-654z" />
<glyph unicode="q" horiz-adv-x="1067" d="M82 475q0 266 129 411.5t387 145.5q122 0 244 -61v53h143v-1536h-143v690q-39 -72 -129.5 -127t-212.5 -55q-418 9 -418 479zM225 475q0 -463 277 -463q137 0 235 74t105 145v721q-145 64 -250 64q-182 0 -274.5 -142.5t-92.5 -398.5z" />
<glyph unicode="r" horiz-adv-x="735" d="M82 0v1024h143v-326q11 42 32 86t52.5 88t68.5 78.5t84.5 57t96.5 24.5h8q41 0 69 -28t28 -68q0 -41 -27.5 -67.5t-69.5 -26.5q-41 0 -67.5 26.5t-26.5 67.5v43q-93 -36 -168 -148t-80 -210v-621h-143z" />
<glyph unicode="s" horiz-adv-x="864" d="M72 805q0 49 17.5 88t49 63t66 40t76.5 23.5t72.5 10t62.5 2.5q177 0 274 -65l-10 -15q-34 26 -110 46q-73 19 -141 18h-7q-58 -1 -100.5 -18t-65 -45t-33 -57.5t-10.5 -61.5q0 -54 32 -95.5t83 -68t113 -50.5t124 -52.5t113 -64t83 -93.5t32 -134q0 -64 -25.5 -115 t-66 -82t-94.5 -51t-106 -28t-106 -8q-209 0 -313 92l12 12q40 -38 122 -63t157 -25q120 0 199 66.5t79 175.5q0 66 -32 116t-83 81t-112.5 56.5t-123.5 51t-113 56t-83 80t-32 114.5z" />
<glyph unicode="t" horiz-adv-x="684" d="M72 1008v16h43v205h143v-205h313v-16h-313v-746q0 -134 29 -193t116 -59q106 0 203 39l6 -16q-100 -39 -209 -39q-79 0 -129.5 10.5t-88.5 40t-54 82.5t-16 137v744h-43z" />
<glyph unicode="u" horiz-adv-x="1077" d="M82 238v786h143v-788q0 -33 2.5 -58t13.5 -59.5t30 -56.5t56.5 -38t88.5 -16q66 0 130 30t107.5 74.5t71.5 92t31 84.5v735h143v-879q0 -37 9.5 -64t23.5 -39t28 -18.5t24 -7.5h9h64v-16h-125q-53 0 -90.5 15t-53 36t-24 42.5t-8.5 36.5v15v88q-37 -88 -131 -164.5 t-211 -76.5q-86 0 -149 15.5t-97.5 38t-54.5 57.5t-25.5 65.5t-5.5 69.5z" />
<glyph unicode="v" horiz-adv-x="962" d="M72 1024h143l313 -848l318 643q3 5 7 14t11 34t9 48t-6 50.5t-29 46.5l12 12q3 -2 8 -6.5t15.5 -22t15 -38.5t0 -58t-22.5 -80l-393 -819h-20z" />
<glyph unicode="w" horiz-adv-x="1617" d="M72 1024h143l313 -848l295 641l-75 207h143l313 -848l297 643q3 5 7 14t11 34t9 48t-6 50.5t-29 46.5l12 12q3 -2 8 -6.5t15.5 -22t15 -38.5t0.5 -58t-22 -80l-373 -819h-21l-294 793l-361 -793h-20z" />
<glyph unicode="x" horiz-adv-x="1040" d="M72 0v16q27 1 55 14.5t49 32.5t38.5 38t26.5 33l9 13l231 345l-364 532h149l314 -457l303 457h20l-315 -471l381 -553h-150l-330 479l-221 -332q-3 -6 -9.5 -16t-27.5 -35t-42.5 -44.5t-53.5 -35.5t-63 -16z" />
<glyph unicode="y" horiz-adv-x="995" d="M72 -481q46 -13 83 -13q40 0 68 15q55 29 92 112l172 367h-2l-381 1024h144l317 -854l314 649q3 5 7 14t11 34t8.5 48t-6.5 50.5t-29 46.5l13 12q3 -2 8 -6.5t15.5 -22t15 -38.5t0 -58t-22.5 -80l-393 -819l-172 -367q-26 -58 -56 -91.5t-65 -43.5q-31 -10 -58 -10h-8 q-31 2 -75 14v17z" />
<glyph unicode="z" horiz-adv-x="958" d="M72 0v16l618 992h-567v16h711v-16l-619 -992h490q15 0 31 1.5t47 8t56 25.5t35 47l13 -6q-1 -4 -3 -10t-14 -22t-30 -28t-53.5 -22t-81.5 -10h-633z" />
<glyph unicode="{" horiz-adv-x="819" d="M205 520v17q106 31 106 249v521q0 54 18 93.5t43.5 62t70.5 38.5t80 22t91 13v-18q-29 -9 -43.5 -14.5t-36.5 -20.5t-32.5 -34.5t-18.5 -54t-8 -81.5v-520q0 -221 -225 -265q225 -48 225 -264v-520q0 -47 8 -81.5t18.5 -54t32.5 -34.5t36.5 -20.5t43.5 -14.5v-18 q-56 7 -91 13t-80 22t-70.5 38.5t-43.5 62t-18 93.5v520q0 219 -106 250z" />
<glyph unicode="|" horiz-adv-x="581" d="M178 -336v1872h164v-1872h-164z" />
<glyph unicode="}" horiz-adv-x="817" d="M205 -461q29 9 43.5 14.5t36.5 20.5t32.5 34.5t18.5 54t8 81.5v520q0 216 225 264q-225 44 -225 265v520q0 47 -8 81.5t-18.5 54t-32.5 34.5t-36.5 20.5t-43.5 14.5v18q56 -7 91 -13t80 -22t70.5 -38.5t43.5 -62t18 -93.5v-521q0 -218 106 -249v-17q-106 -31 -106 -250 v-520q0 -54 -18 -93.5t-43.5 -62t-70.5 -38.5t-80 -22t-91 -13v18z" />
<glyph unicode="~" horiz-adv-x="1204" d="M295 618q19 87 98 95t218 -32q16 -3 24 -5q133 -28 195 -31.5t86.5 13.5t35.5 65l19 -4q-8 -38 -27 -60t-42.5 -30.5t-61 -6t-73 9.5t-89.5 19q-31 7 -47 11q-130 28 -192.5 31.5t-88 -14t-35.5 -65.5z" />
<glyph unicode="&#xa1;" horiz-adv-x="577" d="M207 936q0 37 24.5 62.5t61.5 25.5t62.5 -25.5t25.5 -62.5t-25.5 -61.5t-62.5 -24.5t-61.5 24.5t-24.5 61.5zM219 -430l41 1075h62l40 -1075h-143z" />
<glyph unicode="&#xa2;" horiz-adv-x="985" d="M82 500q0 240 125.5 380.5t324.5 151.5v148h21v-148h8q118 0 217 -53.5t146 -161.5h-131q-31 100 -93.5 149.5t-138.5 49.5h-8v-1008q176 0 315 62l6 -15q-134 -60 -321 -63v-160h-21v160q-76 1 -141.5 18.5t-123 56.5t-98 96.5t-64 143.5t-23.5 193zM221 500 q0 -248 85.5 -367.5t225.5 -124.5v1006q-136 -14 -223.5 -151.5t-87.5 -362.5z" />
<glyph unicode="&#xa3;" horiz-adv-x="1028" d="M86 598v16h82q-66 122 -66 260q0 54 11.5 101t41 94t75.5 80t121.5 53.5t172.5 20.5q76 0 132 -21.5t82 -51.5t41.5 -60.5t17.5 -51.5l2 -22l-19 -6q0 4 -0.5 11t-6 27.5t-14.5 39t-29 41t-46 39t-68 27.5t-94 11q-71 0 -122.5 -27.5t-80 -77.5t-41 -109.5t-12.5 -133.5 q0 -124 47 -244h301v-16h-295q20 -52 60 -134t62 -141t22 -110q0 -118 -96 -197h452v-16h-684v16h162q102 85 102 199q0 42 -23 90t-53.5 86.5t-74 98t-70.5 108.5h-92z" />
<glyph unicode="&#xa4;" horiz-adv-x="1024" d="M199 1227l12 12l90 -92q88 82 213 82q137 0 223 -80l90 90l13 -12l-90 -90q71 -80 71 -215q0 -128 -82 -213l99 -97l-13 -12l-98 96q-88 -82 -213 -82q-136 0 -217 72l-84 -86l-12 12l86 86q-80 80 -80 224q0 128 82 213zM227 922q0 -134 82 -212.5t205 -78.5 q118 0 202.5 85.5t84.5 205.5q0 134 -82 212t-205 78q-119 0 -203 -85t-84 -205z" />
<glyph unicode="&#xa5;" horiz-adv-x="1392" d="M231 174v16h385v252l-18 43h-367v17h361l-295 727h174l301 -719l254 514q2 5 5.5 14t10 34.5t8 48.5t-6 50.5t-25.5 45.5l16 12q3 -3 7.5 -8t14.5 -23.5t14 -40.5t0.5 -58t-19.5 -75l-256 -522h366v-17h-375v-295h375v-16h-375v-174h-170v174h-385z" />
<glyph unicode="&#xa6;" horiz-adv-x="512" d="M178 410h164v-820h-164v820zM178 819v715h164v-715h-164z" />
<glyph unicode="&#xa7;" horiz-adv-x="1024" d="M72 -287l10 17q68 -53 175.5 -87t219.5 -34q61 0 118 10.5t109 34.5t90.5 58.5t61.5 86t23 113.5q0 67 -27 121.5t-72.5 92t-104 69t-123.5 58.5t-130.5 54.5t-124 62.5t-104 77.5t-72.5 105t-27 139.5q0 178 127 264l45 -38q-67 -67 -67 -170q0 -63 27 -112t72 -81.5 t104 -59.5t124 -51t130 -49.5t124 -62t104 -83t72 -116.5t27 -158q0 -87 -27 -155.5t-71.5 -111t-107.5 -70.5t-130 -39t-145 -11q-252 0 -430 125zM94 1102q0 71 23 130.5t70.5 106t127.5 73t187 26.5q195 0 405 -70l-8 -20q-75 29 -183 50t-190 21q-143 0 -235 -70 t-92 -192q0 -63 27 -112t72 -81.5t104 -59.5t124 -50.5t130 -49.5t124 -62t104 -82.5t72 -116.5t27 -158q0 -179 -106 -274l-43 55q45 64 45 156q0 67 -27 121.5t-72.5 92t-104 69t-123.5 58.5t-130.5 54.5t-124 62.5t-104 77.5t-72.5 105t-27 139.5z" />
<glyph unicode="&#xa8;" horiz-adv-x="1024" d="M227 1315q0 37 24.5 62.5t61.5 25.5t62.5 -25.5t25.5 -62.5t-25.5 -61.5t-62.5 -24.5t-61.5 24.5t-24.5 61.5zM674 1315q0 37 24.5 62.5t61.5 25.5t62.5 -25.5t25.5 -62.5t-25.5 -61.5t-62.5 -24.5t-61.5 24.5t-24.5 61.5z" />
<glyph unicode="&#xa9;" horiz-adv-x="1705" d="M102 614q0 180 94.5 321.5t254.5 217.5t356 76q140 0 259.5 -39t210 -113.5t142 -193t51.5 -269.5q0 -180 -89 -321.5t-239.5 -217t-334.5 -75.5q-150 0 -276.5 38.5t-223 112.5t-151 193t-54.5 270zM266 614q0 -139 42.5 -253t116.5 -189t172 -115.5t210 -40.5 q110 0 209.5 44t172.5 121.5t116 190t43 242.5q0 139 -42.5 253t-116.5 189t-172 115.5t-210 40.5q-110 0 -209.5 -44t-172.5 -121.5t-116 -190t-43 -242.5zM451 612q0 92 23 164.5t61.5 118t92 75.5t110 42t120.5 12q45 0 89 -8t65 -16l22 -9l-2 -10q-80 31 -174 31 q-27 1 -56.5 -3t-78.5 -26.5t-85 -61.5t-63.5 -119.5t-27.5 -189.5q0 -79 14 -142.5t35 -104t51.5 -70.5t57.5 -44.5t60 -23.5t52.5 -10.5t40.5 -1.5q50 0 102.5 8.5t79.5 16.5l27 8l2 -12q-88 -31 -211 -31q-407 0 -407 407z" />
<glyph unicode="&#xaa;" horiz-adv-x="821" d="M80 1139q-9 58 29.5 90.5t162.5 40.5q73 6 111 0v168q-2 1 0 9.5t-4 22t-15 26.5t-32 22.5t-56 9.5q-41 0 -90 -14t-75 -27l-5 8q1 0 9 4t15 7t20 7.5t27 8t31.5 7t38 5.5t42.5 2q164 0 164 -98v-338q0 -29 11.5 -45t23.5 -17l12 -2h30v-8h-30q-34 0 -59 7.5t-35.5 18 t-16.5 21t-6 17.5v8v14q-49 -90 -160 -90q-126 0 -143 115zM152 1139q9 -107 88 -107q54 0 97 37t46 72v121q-46 8 -111 0q-76 -9 -100.5 -36.5t-19.5 -86.5z" />
<glyph unicode="&#xab;" horiz-adv-x="1421" d="M205 530l702 406v-16l-569 -390l569 -387v-16zM733 530l500 289v-16l-367 -273l367 -272v-16z" />
<glyph unicode="&#xac;" horiz-adv-x="1228" d="M205 526v17h860v-195h-164v178h-696z" />
<glyph unicode="&#xad;" horiz-adv-x="819" d="M94 584v16h619v-16h-619z" />
<glyph unicode="&#xae;" horiz-adv-x="1226" d="M102 1022q0 183 144 297.5t360 114.5q146 0 258 -44.5t180 -139t68 -228.5q0 -182 -144.5 -296t-361.5 -114q-145 0 -256.5 44t-179.5 138t-68 228zM266 1022q0 -188 96.5 -290.5t243.5 -102.5q145 0 243.5 107.5t98.5 285.5q0 189 -97 292t-245 103q-144 0 -242 -108.5 t-98 -286.5zM459 770v498q93 6 137 6q101 1 143.5 -32t42.5 -87q0 -118 -108 -143l145 -242h-67l-142 238h-92v-238h-59zM518 1016h107q100 4 100 137q0 113 -119 113q-55 0 -88 -4v-246z" />
<glyph unicode="&#xaf;" horiz-adv-x="1024" d="M205 1229v16h614v-16h-614z" />
<glyph unicode="&#xb0;" horiz-adv-x="774" d="M143 1251q0 80 71.5 131.5t170.5 51.5q109 0 176.5 -46t67.5 -137q0 -79 -70 -129.5t-174 -50.5t-173 45.5t-69 134.5zM266 1251q0 -76 34 -120t85 -44q50 0 85.5 48.5t35.5 115.5q0 77 -34.5 121.5t-86.5 44.5q-49 0 -84 -48.5t-35 -117.5z" />
<glyph unicode="&#xb1;" horiz-adv-x="1384" d="M279 205v16h860v-16h-860zM279 854v16h337v400h164v-400h359v-16h-359v-444h-164v444h-337z" />
<glyph unicode="&#xb2;" horiz-adv-x="679" d="M215 1024q95 73 172.5 198.5t77.5 192.5q0 113 -74 113q-22 0 -41.5 -4t-35 -13t-24 -14.5t-21 -16.5t-13.5 -12l-6 7q68 61 141 61q77 0 116.5 -31.5t39.5 -85.5q0 -69 -72.5 -192.5t-161.5 -194.5h197q72 0 86 41l6 -4q0 -2 -1.5 -5t-7.5 -10.5t-15 -13.5t-27 -11 t-41 -5h-295z" />
<glyph unicode="&#xb3;" horiz-adv-x="614" d="M109 1032q65 17 119.5 73t54.5 126q0 47 -20.5 70.5t-47.5 25.5q-24 -6 -25 -6l-4 6q44 13 74.5 47.5t30.5 81.5q0 76 -58 76q-46 0 -106 -25l-4 6q59 25 115 25q10 0 19 -0.5t29.5 -5t34.5 -12t25.5 -24.5t11.5 -40q0 -45 -36.5 -76t-88.5 -47q50 -5 84.5 -30.5 t34.5 -73.5q0 -53 -41.5 -98.5t-94 -71t-105.5 -35.5z" />
<glyph unicode="&#xb4;" horiz-adv-x="614" d="M209 1161l94 289l148 4l-215 -293h-27z" />
<glyph unicode="&#xb5;" horiz-adv-x="1015" d="M20 -512v1536h144v-788q0 -33 2 -58t13 -59.5t30 -56.5t56.5 -38t88.5 -16q66 0 130 30t107.5 74.5t71.5 92t31 84.5v735h144v-879q0 -37 9.5 -64t23.5 -39t28 -18.5t23 -7.5h10h63v-16h-125q-53 0 -90.5 15t-53 36t-24 42.5t-8.5 36.5v15v88q-37 -88 -131 -164.5 t-211 -76.5q-121 0 -188 24v-528h-144z" />
<glyph unicode="&#xb6;" horiz-adv-x="1173" d="M104 868q0 61 15 112.5t53 99t97 80t152 51t214 16.5q173 -2 397 -17v-1349q0 -84 -16.5 -137.5t-54.5 -82.5t-88.5 -40t-129.5 -11q-108 0 -208 39l6 17q97 -39 202 -39q69 0 93 59.5t24 192.5v571h-303q-107 0 -189.5 27.5t-131.5 70t-79.5 102.5t-41.5 117t-11 121z M268 864q0 -117 23.5 -199.5t65.5 -127t90.5 -64.5t109.5 -22h303v741q-132 14 -250 14q-170 0 -256 -89t-86 -253z" />
<glyph unicode="&#xb7;" horiz-adv-x="241" d="M57 815q0 28 19 47t47 19q27 0 46 -19.5t19 -46.5q0 -26 -19.5 -45.5t-45.5 -19.5q-27 0 -46.5 19t-19.5 46z" />
<glyph unicode="&#xb8;" horiz-adv-x="532" d="M43 -373h63q4 0 10.5 0.5t22.5 7t28.5 18.5t23 39t10.5 64v244h143v-244q-2 0 0 -8t-2 -21t-8 -28t-17.5 -31t-31 -28.5t-48.5 -20.5t-69 -8h-125v16z" />
<glyph unicode="&#xb9;" horiz-adv-x="493" d="M150 1024v8h63v498h-49v8h180v-8h-49v-498h61v-8h-206z" />
<glyph unicode="&#xba;" horiz-adv-x="768" d="M127 1274q0 123 69 192.5t177 69.5q105 0 171 -60.5t66 -189.5q0 -123 -68.5 -192.5t-176.5 -69.5q-105 0 -171.5 60.5t-66.5 189.5zM195 1274q0 -125 47 -183.5t123 -58.5t126 68t50 186q0 125 -46.5 183.5t-121.5 58.5q-77 0 -127.5 -68t-50.5 -186z" />
<glyph unicode="&#xbb;" horiz-adv-x="1421" d="M205 242v16l366 272l-366 273v16l500 -289zM530 127v16l570 387l-570 390v16l703 -406z" />
<glyph unicode="&#xbc;" horiz-adv-x="1433" d="M172 819v12h64v695h-50v12h185v-12h-49v-695h63v-12h-213zM410 0l514 1534h20l-514 -1534h-20zM731 119l426 598l10 -6q-177 -245 -417 -582h264l41 330h94l-39 -330h57v-10h-59l-14 -119h-95l15 119h-283z" />
<glyph unicode="&#xbd;" horiz-adv-x="1538" d="M172 819v12h64v695h-50v12h185v-12h-49v-695h63v-12h-213zM410 0l514 1534h20l-514 -1534h-20zM858 0q133 103 241.5 278.5t108.5 268.5q0 13 -1 25.5t-4 32t-10 35t-17.5 30.5t-28.5 23.5t-41 8.5q-31 0 -57.5 -5.5t-49 -16.5t-34 -18.5t-30 -22.5t-20.5 -16l-8 8 q48 42 93.5 63t105.5 21q107 0 162 -43t55 -119q0 -97 -101.5 -269.5t-226.5 -271.5h277q9 0 21 1.5t34 6t39.5 17.5t24.5 33l8 -7q0 -3 -1.5 -7t-10 -15t-21 -19t-37.5 -15t-57 -7h-414z" />
<glyph unicode="&#xbe;" horiz-adv-x="1576" d="M43 821v8q89 24 164.5 102.5t75.5 174.5q0 66 -28 99t-67 38q-11 -5 -34 -10l-4 8q61 20 102 68t41 112q0 47 -19 76t-59 29q-64 0 -149 -33l-5 8q80 35 158 35q19 0 38.5 -2.5t54 -12t56 -35.5t21.5 -65q0 -111 -174 -170q68 -7 115 -42t47 -103q0 -56 -32.5 -106.5 t-84 -85.5t-108 -59t-109.5 -34zM410 0l514 1534h20l-514 -1534h-20zM731 119l426 598l10 -6q-177 -245 -417 -582h264l41 330h94l-39 -330h57v-10h-59l-14 -119h-95l15 119h-283z" />
<glyph unicode="&#xbf;" horiz-adv-x="1024" d="M238 -98q0 67 29 130t75 115.5t101.5 105t111.5 107t102 111.5t75.5 130t29.5 151h20q0 -79 -21 -153t-55 -133t-75 -115t-81.5 -109t-74.5 -105.5t-55 -114t-21 -124.5q0 -138 67 -225t193 -87q43 0 113.5 12t119.5 24l50 11l8 -12q-165 -51 -315 -51q-184 0 -290.5 83 t-106.5 249zM702 956q0 26 20 46t46 20q27 0 46.5 -19.5t19.5 -46.5q0 -28 -19 -46.5t-47 -18.5q-27 0 -46.5 19t-19.5 46z" />
<glyph unicode="&#xc0;" d="M61 0l613 1434l22 10l516 -1444h-174l-159 451h-598l-195 -451h-25zM289 471h583l-262 741zM455 1831l147 -4l94 -289h-26z" />
<glyph unicode="&#xc1;" d="M61 0l613 1434l22 10l516 -1444h-174l-159 451h-598l-195 -451h-25zM289 471h583l-262 741zM692 1536l94 289l148 4l-215 -293h-27z" />
<glyph unicode="&#xc2;" d="M61 0l613 1434l22 10l516 -1444h-174l-159 451h-598l-195 -451h-25zM289 471h583l-262 741zM422 1559l280 296l263 -276l-43 -41l-248 266l-238 -256z" />
<glyph unicode="&#xc3;" d="M61 0l613 1434l22 10l516 -1444h-174l-159 451h-598l-195 -451h-25zM289 471h583l-262 741zM344 1544q12 66 41.5 101t87 38.5t95.5 -2t121 -24.5q24 -5 36 -8q105 -23 165.5 -30.5t94 1.5t45 25.5t21.5 52.5l18 -4q-10 -49 -26.5 -81.5t-39 -49t-50.5 -22.5t-61 -2.5 t-70.5 12t-80.5 20.5q-18 5 -28 8q-183 39 -260.5 29.5t-92.5 -70.5z" />
<glyph unicode="&#xc4;" d="M61 0l613 1434l22 10l516 -1444h-174l-159 451h-598l-195 -451h-25zM289 471h583l-262 741zM371 1622q0 37 24.5 62.5t61.5 25.5t62.5 -25.5t25.5 -62.5t-25.5 -61.5t-62.5 -24.5t-61.5 24.5t-24.5 61.5zM817 1622q0 37 24.5 62.5t61.5 25.5t62.5 -25.5t25.5 -62.5 t-25.5 -61.5t-62.5 -24.5t-61.5 24.5t-24.5 61.5z" />
<glyph unicode="&#xc5;" d="M61 0l613 1434l22 10l516 -1444h-174l-159 451h-598l-195 -451h-25zM289 471h583l-262 741zM453 1718q0 80 71 131.5t170 51.5q109 0 176.5 -46t67.5 -137q0 -79 -70 -129.5t-174 -50.5t-172.5 45.5t-68.5 134.5zM575 1718q0 -76 34 -120t85 -44q50 0 85.5 48.5 t35.5 115.5q0 77 -34.5 121.5t-86.5 44.5q-49 0 -84 -48.5t-35 -117.5z" />
<glyph unicode="&#xc6;" horiz-adv-x="1421" d="M61 0l613 1434h631v-21h-461v-614h413v-21h-413v-758h506v-20h-676v451h-393l-195 -451h-25zM289 471h385v889z" />
<glyph unicode="&#xc7;" horiz-adv-x="1263" d="M102 713q0 162 41 289t108.5 207.5t161.5 132.5t193 73t211 21q81 0 159 -14t116 -28l38 -14l-6 -20q-16 6 -43.5 15t-108 24.5t-155.5 15.5q-31 1 -64 -2t-90 -18t-106 -41t-103.5 -79t-92.5 -124.5t-63.5 -184.5t-25.5 -253q0 -109 15 -202t39 -160t60 -121t72 -88.5 t81 -60t81 -38.5t78 -20.5t67 -9t52 -1.5q89 0 181.5 14t139.5 28l48 14l6 -21q-18 -6 -49.5 -15t-130 -24.5t-195.5 -15.5q-80 0 -151.5 9t-145 32t-134 59t-114.5 93t-90.5 130.5t-58 174.5t-21.5 223zM575 -373h64q4 0 10 0.5t22.5 7t29 18.5t22.5 39t10 64v244h144v-244 v-15.5t-8.5 -34.5t-24.5 -44.5t-53.5 -35t-90.5 -15.5h-125v16z" />
<glyph unicode="&#xc8;" horiz-adv-x="983" d="M61 0v1434h816v-21h-646v-614h598v-21h-598v-758h691v-20h-861zM311 1829l148 -4l94 -289h-27z" />
<glyph unicode="&#xc9;" horiz-adv-x="983" d="M61 0v1434h816v-21h-646v-614h598v-21h-598v-758h691v-20h-861zM496 1536l94 289l147 4l-215 -293h-26z" />
<glyph unicode="&#xca;" horiz-adv-x="983" d="M61 0v1434h816v-21h-646v-614h598v-21h-598v-758h691v-20h-861zM258 1556l281 297l262 -276l-43 -41l-248 266l-238 -256z" />
<glyph unicode="&#xcb;" horiz-adv-x="983" d="M61 0v1434h816v-21h-646v-614h598v-21h-598v-758h691v-20h-861zM207 1622q0 37 24.5 62.5t61.5 25.5t62.5 -25.5t25.5 -62.5t-25.5 -61.5t-62.5 -24.5t-61.5 24.5t-24.5 61.5zM653 1622q0 37 24.5 62.5t61.5 25.5t62.5 -25.5t25.5 -62.5t-25.5 -61.5t-62.5 -24.5 t-61.5 24.5t-24.5 61.5z" />
<glyph unicode="&#xcc;" horiz-adv-x="651" d="M106 1827l148 -4l94 -289h-26zM143 0v20h95v1393h-95v21h365v-21h-100v-1393h100v-20h-365z" />
<glyph unicode="&#xcd;" horiz-adv-x="651" d="M143 0v20h95v1393h-95v21h365v-21h-100v-1393h100v-20h-365zM270 1534l95 289l147 4l-215 -293h-27z" />
<glyph unicode="&#xce;" horiz-adv-x="651" d="M53 1554l281 297l262 -276l-43 -41l-248 266l-237 -256zM143 0v20h95v1393h-95v21h365v-21h-100v-1393h100v-20h-365z" />
<glyph unicode="&#xcf;" horiz-adv-x="651" d="M18 1622q0 37 24.5 62.5t61.5 25.5t63 -25.5t26 -62.5q0 -36 -26 -61t-63 -25t-61.5 24.5t-24.5 61.5zM143 0v20h95v1393h-95v21h365v-21h-100v-1393h100v-20h-365zM465 1622q0 37 24.5 62.5t61.5 25.5t62.5 -25.5t25.5 -62.5t-25.5 -61.5t-62.5 -24.5t-61.5 24.5 t-24.5 61.5z" />
<glyph unicode="&#xd0;" horiz-adv-x="1339" d="M143 754v16h66v662h164q90 4 149 4q80 0 151.5 -9t145 -32t134 -59t114.5 -93t90.5 -130.5t58 -174.5t21.5 -223q0 -162 -41 -289t-108.5 -207.5t-161.5 -132.5t-193 -73t-211 -21q-101 0 -211 8h-102v754h-66zM379 16q43 -4 143 -4q31 -1 64 2t90 18t106 41.5 t103.5 79.5t92.5 124.5t63.5 184.5t25.5 253q0 109 -15 202t-39 160t-60 121t-72 88.5t-81 60t-81 38t-78.5 20t-66.5 9t-52 1.5q-78 0 -143 -6v-639h371v-16h-371v-738z" />
<glyph unicode="&#xd1;" horiz-adv-x="1214" d="M133 0v1434h70l852 -1325v1325h26v-1434h-149l-772 1188v-1188h-27zM303 1546q12 66 41.5 101t87 38.5t95.5 -2t121 -24.5q24 -5 36 -8q105 -23 165.5 -30.5t94 1.5t45 25.5t21.5 52.5l18 -4q-10 -49 -26.5 -81.5t-39 -49t-50.5 -22.5t-61 -2.5t-70.5 12t-80.5 20.5 q-18 5 -28 8q-183 39 -260.5 29.5t-92.5 -70.5z" />
<glyph unicode="&#xd2;" horiz-adv-x="1474" d="M102 682q0 189 49.5 335.5t138.5 238.5t208.5 139t265.5 47q102 0 190 -22.5t166 -75t133 -132t87 -199t32 -270.5q0 -190 -49 -335t-138.5 -235.5t-208.5 -135.5t-265 -45q-103 0 -190.5 22t-166 73t-133.5 129t-87 196.5t-32 269.5zM272 692q0 -182 35.5 -317 t99 -212.5t141.5 -114t173 -36.5q105 0 192 45t152 132.5t101 228t36 321.5t-35.5 316t-98.5 213t-142 115.5t-174 37.5q-104 0 -190 -44.5t-151.5 -132t-102 -228.5t-36.5 -324zM510 1829l147 -4l95 -289h-27z" />
<glyph unicode="&#xd3;" horiz-adv-x="1474" d="M102 682q0 189 49.5 335.5t138.5 238.5t208.5 139t265.5 47q102 0 190 -22.5t166 -75t133 -132t87 -199t32 -270.5q0 -190 -49 -335t-138.5 -235.5t-208.5 -135.5t-265 -45q-103 0 -190.5 22t-166 73t-133.5 129t-87 196.5t-32 269.5zM272 692q0 -182 35.5 -317 t99 -212.5t141.5 -114t173 -36.5q105 0 192 45t152 132.5t101 228t36 321.5t-35.5 316t-98.5 213t-142 115.5t-174 37.5q-104 0 -190 -44.5t-151.5 -132t-102 -228.5t-36.5 -324zM756 1536l94 289l147 4l-215 -293h-26z" />
<glyph unicode="&#xd4;" horiz-adv-x="1474" d="M102 682q0 189 49.5 335.5t138.5 238.5t208.5 139t265.5 47q102 0 190 -22.5t166 -75t133 -132t87 -199t32 -270.5q0 -190 -49 -335t-138.5 -235.5t-208.5 -135.5t-265 -45q-103 0 -190.5 22t-166 73t-133.5 129t-87 196.5t-32 269.5zM272 692q0 -182 35.5 -317 t99 -212.5t141.5 -114t173 -36.5q105 0 192 45t152 132.5t101 228t36 321.5t-35.5 316t-98.5 213t-142 115.5t-174 37.5q-104 0 -190 -44.5t-151.5 -132t-102 -228.5t-36.5 -324zM498 1556l280 297l262 -276l-43 -41l-247 266l-238 -256z" />
<glyph unicode="&#xd5;" horiz-adv-x="1474" d="M102 682q0 189 49.5 335.5t138.5 238.5t208.5 139t265.5 47q102 0 190 -22.5t166 -75t133 -132t87 -199t32 -270.5q0 -190 -49 -335t-138.5 -235.5t-208.5 -135.5t-265 -45q-103 0 -190.5 22t-166 73t-133.5 129t-87 196.5t-32 269.5zM272 692q0 -182 35.5 -317 t99 -212.5t141.5 -114t173 -36.5q105 0 192 45t152 132.5t101 228t36 321.5t-35.5 316t-98.5 213t-142 115.5t-174 37.5q-104 0 -190 -44.5t-151.5 -132t-102 -228.5t-36.5 -324zM399 1544q12 66 41.5 101t87 38.5t95.5 -2t121 -24.5q24 -5 36 -8q105 -23 165.5 -30.5 t94 1.5t45 25.5t21.5 52.5l18 -4q-10 -49 -26.5 -81.5t-39 -49t-50.5 -22.5t-61 -2.5t-70.5 12t-80.5 20.5q-18 5 -28 8q-183 39 -260 29.5t-92 -70.5z" />
<glyph unicode="&#xd6;" horiz-adv-x="1474" d="M102 682q0 189 49.5 335.5t138.5 238.5t208.5 139t265.5 47q102 0 190 -22.5t166 -75t133 -132t87 -199t32 -270.5q0 -190 -49 -335t-138.5 -235.5t-208.5 -135.5t-265 -45q-103 0 -190.5 22t-166 73t-133.5 129t-87 196.5t-32 269.5zM272 692q0 -182 35.5 -317 t99 -212.5t141.5 -114t173 -36.5q105 0 192 45t152 132.5t101 228t36 321.5t-35.5 316t-98.5 213t-142 115.5t-174 37.5q-104 0 -190 -44.5t-151.5 -132t-102 -228.5t-36.5 -324zM426 1622q0 37 24.5 62.5t61.5 25.5t62.5 -25.5t25.5 -62.5t-25.5 -61.5t-62.5 -24.5 t-61.5 24.5t-24.5 61.5zM872 1622q0 37 24.5 62.5t61.5 25.5t63 -25.5t26 -62.5q0 -36 -26 -61t-63 -25t-61.5 24.5t-24.5 61.5z" />
<glyph unicode="&#xd7;" horiz-adv-x="1294" d="M279 12l299 299l-295 295l127 127l295 -295l299 299l12 -12l-299 -299l301 -299l-127 -127l-301 299l-299 -299z" />
<glyph unicode="&#xd8;" horiz-adv-x="1474" d="M102 682q0 189 49.5 335.5t138.5 238.5t208.5 139t265.5 47q102 0 190 -22.5t166 -75t133 -132t87 -199t32 -270.5q0 -190 -49 -335t-138.5 -235.5t-208.5 -135.5t-265 -45q-103 0 -190.5 22t-166 73t-133.5 129t-87 196.5t-32 269.5zM184 10l1039 1424l14 -11 l-1038 -1423zM272 692q0 -182 35.5 -317t99 -212.5t141.5 -114t173 -36.5q105 0 192 45t152 132.5t101 228t36 321.5t-35.5 316t-98.5 213t-142 115.5t-174 37.5q-104 0 -190 -44.5t-151.5 -132t-102 -228.5t-36.5 -324z" />
<glyph unicode="&#xd9;" horiz-adv-x="1134" d="M61 614v820h170v-818q0 -151 20.5 -261.5t53 -175.5t84 -103.5t104 -51t121.5 -12.5q75 0 138.5 19.5t118.5 65t93.5 114t60.5 171.5t22 234v818h26v-820q0 -165 -35.5 -288t-100 -194.5t-145 -105.5t-178.5 -34q-71 0 -128.5 6.5t-116 24t-103 46.5t-84.5 77t-65.5 112 t-40.5 154t-15 202zM414 1829l147 -4l94 -289h-26z" />
<glyph unicode="&#xda;" horiz-adv-x="1134" d="M61 614v820h170v-818q0 -151 20.5 -261.5t53 -175.5t84 -103.5t104 -51t121.5 -12.5q75 0 138.5 19.5t118.5 65t93.5 114t60.5 171.5t22 234v818h26v-820q0 -165 -35.5 -288t-100 -194.5t-145 -105.5t-178.5 -34q-71 0 -128.5 6.5t-116 24t-103 46.5t-84.5 77t-65.5 112 t-40.5 154t-15 202zM618 1536l95 289l147 4l-215 -293h-27z" />
<glyph unicode="&#xdb;" horiz-adv-x="1134" d="M61 614v820h170v-818q0 -151 20.5 -261.5t53 -175.5t84 -103.5t104 -51t121.5 -12.5q75 0 138.5 19.5t118.5 65t93.5 114t60.5 171.5t22 234v818h26v-820q0 -165 -35.5 -288t-100 -194.5t-145 -105.5t-178.5 -34q-71 0 -128.5 6.5t-116 24t-103 46.5t-84.5 77t-65.5 112 t-40.5 154t-15 202zM360 1559l281 296l262 -276l-43 -41l-248 266l-237 -256z" />
<glyph unicode="&#xdc;" horiz-adv-x="1134" d="M61 614v820h170v-818q0 -151 20.5 -261.5t53 -175.5t84 -103.5t104 -51t121.5 -12.5q75 0 138.5 19.5t118.5 65t93.5 114t60.5 171.5t22 234v818h26v-820q0 -165 -35.5 -288t-100 -194.5t-145 -105.5t-178.5 -34q-71 0 -128.5 6.5t-116 24t-103 46.5t-84.5 77t-65.5 112 t-40.5 154t-15 202zM330 1622q0 37 24.5 62.5t61.5 25.5t62.5 -25.5t25.5 -62.5t-25.5 -61.5t-62.5 -24.5t-61.5 24.5t-24.5 61.5zM776 1622q0 37 24.5 62.5t61.5 25.5t62.5 -25.5t25.5 -62.5t-25.5 -61.5t-62.5 -24.5t-61.5 24.5t-24.5 61.5z" />
<glyph unicode="&#xdd;" horiz-adv-x="1091" d="M61 1434h175l391 -924l356 719q2 5 5.5 14t10 34t8 48t-6 50.5t-25.5 45.5l16 13q3 -3 7.5 -8t14.5 -23.5t14 -40.5t0.5 -58t-19.5 -75l-367 -744v-485h-170v440zM578 1536l94 289l147 4l-215 -293h-26z" />
<glyph unicode="&#xde;" horiz-adv-x="1171" d="M143 0v1434h170v-293l226 6q121 2 214 -16.5t152 -51t96.5 -80t52.5 -99t15 -112.5q0 -64 -11 -121t-41.5 -117t-79.5 -102.5t-131.5 -70t-189.5 -27.5h-303v-350h-170zM313 371h303q61 2 109.5 22t90.5 64.5t65.5 127t23.5 199.5q0 164 -86 253t-256 89q-118 0 -250 -14 v-741z" />
<glyph unicode="&#xdf;" horiz-adv-x="1196" d="M61 1008v16h105v242q0 68 19 119.5t48 81t69.5 47.5t77.5 24t79 6q135 0 222 -69t87 -203q0 -238 -2 -443q0 -48 16 -87t41.5 -64t58.5 -49.5t67.5 -44t67.5 -48t58.5 -60t41.5 -81.5t16 -112q0 -66 -21 -118t-55 -84t-81 -52.5t-95.5 -28.5t-102.5 -8q-33 0 -77 5.5 t-111 28t-107 58.5l13 12q40 -39 122 -63.5t162 -24.5q30 0 58 7.5t56.5 27t49.5 49.5t34 78.5t13 110.5q0 52 -16.5 93t-43.5 67t-61.5 49t-71 39t-71 37.5t-61.5 44.5t-43.5 60t-16.5 83v520q0 58 -6.5 101t-22.5 80t-46 56t-74 19q-52 0 -89.5 -59.5t-37.5 -198.5v-1272 h-164v1008h-105z" />
<glyph unicode="&#xe0;" horiz-adv-x="1062" d="M74.5 302.5q2.5 36.5 26 67.5t66.5 55t119 40.5t183 23.5q124 11 221 3v339q0 4 0.5 10.5t-2 26t-8 37t-21 38.5t-37.5 36.5t-60 26t-87 10.5q-86 0 -187.5 -28t-148.5 -54l-8 14q1 0 17 8t30.5 14t40.5 16t54.5 17t63.5 14t77.5 11t87.5 4q85 0 148.5 -14.5t97.5 -35.5 t54.5 -50.5t26 -52.5t5.5 -48v-686q0 -37 9.5 -64t23.5 -39t28 -18.5t23 -7.5h10h63v-16h-63q-70 0 -120.5 15t-72 36t-33 42.5t-12.5 36.5v15v29q-19 -35 -40 -61t-58 -56.5t-94 -47.5t-129 -17q-259 0 -293 233q-4 41 -1.5 77.5zM219 225q17 -217 182 -217q109 0 196.5 75 t92.5 144v248q-123 10 -223 -2q-81 -9 -132 -27.5t-78 -50t-35 -71.5t-3 -99zM283 1454l147 -4l94 -289h-26z" />
<glyph unicode="&#xe1;" horiz-adv-x="1062" d="M74.5 302.5q2.5 36.5 26 67.5t66.5 55t119 40.5t183 23.5q124 11 221 3v339q0 4 0.5 10.5t-2 26t-8 37t-21 38.5t-37.5 36.5t-60 26t-87 10.5q-86 0 -187.5 -28t-148.5 -54l-8 14q1 0 17 8t30.5 14t40.5 16t54.5 17t63.5 14t77.5 11t87.5 4q85 0 148.5 -14.5t97.5 -35.5 t54.5 -50.5t26 -52.5t5.5 -48v-686q0 -37 9.5 -64t23.5 -39t28 -18.5t23 -7.5h10h63v-16h-63q-70 0 -120.5 15t-72 36t-33 42.5t-12.5 36.5v15v29q-19 -35 -40 -61t-58 -56.5t-94 -47.5t-129 -17q-259 0 -293 233q-4 41 -1.5 77.5zM219 225q17 -217 182 -217q109 0 196.5 75 t92.5 144v248q-123 10 -223 -2q-81 -9 -132 -27.5t-78 -50t-35 -71.5t-3 -99zM487 1161l95 289l147 4l-215 -293h-27z" />
<glyph unicode="&#xe2;" horiz-adv-x="1062" d="M74.5 302.5q2.5 36.5 26 67.5t66.5 55t119 40.5t183 23.5q124 11 221 3v339q0 4 0.5 10.5t-2 26t-8 37t-21 38.5t-37.5 36.5t-60 26t-87 10.5q-86 0 -187.5 -28t-148.5 -54l-8 14q1 0 17 8t30.5 14t40.5 16t54.5 17t63.5 14t77.5 11t87.5 4q85 0 148.5 -14.5t97.5 -35.5 t54.5 -50.5t26 -52.5t5.5 -48v-686q0 -37 9.5 -64t23.5 -39t28 -18.5t23 -7.5h10h63v-16h-63q-70 0 -120.5 15t-72 36t-33 42.5t-12.5 36.5v15v29q-19 -35 -40 -61t-58 -56.5t-94 -47.5t-129 -17q-259 0 -293 233q-4 41 -1.5 77.5zM219 225q17 -217 182 -217q109 0 196.5 75 t92.5 144v248q-123 10 -223 -2q-81 -9 -132 -27.5t-78 -50t-35 -71.5t-3 -99zM229 1239l281 297l262 -276l-43 -41l-248 266l-237 -256z" />
<glyph unicode="&#xe3;" horiz-adv-x="1112" d="M74.5 302.5q2.5 36.5 26 67.5t66.5 55t119 40.5t183 23.5q124 11 221 3v339q0 4 0.5 10.5t-2 26t-8 37t-21 38.5t-37.5 36.5t-60 26t-87 10.5q-86 0 -187.5 -28t-148.5 -54l-8 14q1 0 17 8t30.5 14t40.5 16t54.5 17t63.5 14t77.5 11t87.5 4q85 0 148.5 -14.5t97.5 -35.5 t54.5 -50.5t26 -52.5t5.5 -48v-686q0 -37 9.5 -64t23.5 -39t28 -18.5t23 -7.5h10h63v-16h-63q-70 0 -120.5 15t-72 36t-33 42.5t-12.5 36.5v15v29q-19 -35 -40 -61t-58 -56.5t-94 -47.5t-129 -17q-259 0 -293 233q-4 41 -1.5 77.5zM131 1198q12 66 41.5 101t87 38.5t95.5 -2 t121 -24.5q24 -5 36 -8q105 -23 165.5 -30.5t94 1.5t45 25.5t21.5 52.5l18 -4q-10 -49 -26.5 -81.5t-39 -49t-50.5 -22.5t-61 -2.5t-70.5 12t-80.5 20.5q-18 5 -28 8q-183 39 -260.5 29.5t-92.5 -70.5zM219 225q17 -217 182 -217q109 0 196.5 75t92.5 144v248 q-123 10 -223 -2q-81 -9 -132 -27.5t-78 -50t-35 -71.5t-3 -99z" />
<glyph unicode="&#xe4;" horiz-adv-x="1062" d="M74.5 302.5q2.5 36.5 26 67.5t66.5 55t119 40.5t183 23.5q124 11 221 3v339q0 4 0.5 10.5t-2 26t-8 37t-21 38.5t-37.5 36.5t-60 26t-87 10.5q-86 0 -187.5 -28t-148.5 -54l-8 14q1 0 17 8t30.5 14t40.5 16t54.5 17t63.5 14t77.5 11t87.5 4q85 0 148.5 -14.5t97.5 -35.5 t54.5 -50.5t26 -52.5t5.5 -48v-686q0 -37 9.5 -64t23.5 -39t28 -18.5t23 -7.5h10h63v-16h-63q-70 0 -120.5 15t-72 36t-33 42.5t-12.5 36.5v15v29q-19 -35 -40 -61t-58 -56.5t-94 -47.5t-129 -17q-259 0 -293 233q-4 41 -1.5 77.5zM158 1315q0 37 24.5 62.5t61.5 25.5 t62.5 -25.5t25.5 -62.5t-25.5 -61.5t-62.5 -24.5t-61.5 24.5t-24.5 61.5zM219 225q17 -217 182 -217q109 0 196.5 75t92.5 144v248q-123 10 -223 -2q-81 -9 -132 -27.5t-78 -50t-35 -71.5t-3 -99zM604 1315q0 37 24.5 62.5t61.5 25.5t62.5 -25.5t25.5 -62.5t-25.5 -61.5 t-62.5 -24.5t-61.5 24.5t-24.5 61.5z" />
<glyph unicode="&#xe5;" horiz-adv-x="1062" d="M74.5 302.5q2.5 36.5 26 67.5t66.5 55t119 40.5t183 23.5q124 11 221 3v339q0 4 0.5 10.5t-2 26t-8 37t-21 38.5t-37.5 36.5t-60 26t-87 10.5q-86 0 -187.5 -28t-148.5 -54l-8 14q1 0 17 8t30.5 14t40.5 16t54.5 17t63.5 14t77.5 11t87.5 4q85 0 148.5 -14.5t97.5 -35.5 t54.5 -50.5t26 -52.5t5.5 -48v-686q0 -37 9.5 -64t23.5 -39t28 -18.5t23 -7.5h10h63v-16h-63q-70 0 -120.5 15t-72 36t-33 42.5t-12.5 36.5v15v29q-19 -35 -40 -61t-58 -56.5t-94 -47.5t-129 -17q-259 0 -293 233q-4 41 -1.5 77.5zM219 225q17 -217 182 -217q109 0 196.5 75 t92.5 144v248q-123 10 -223 -2q-81 -9 -132 -27.5t-78 -50t-35 -71.5t-3 -99zM248 1354q0 80 71 131t170 51q109 0 176.5 -45.5t67.5 -136.5q0 -79 -70 -129.5t-174 -50.5t-172.5 45.5t-68.5 134.5zM371 1354q0 -76 33.5 -120t84.5 -44q50 0 85.5 48.5t35.5 115.5 q0 77 -34.5 121.5t-86.5 44.5q-49 0 -83.5 -48.5t-34.5 -117.5z" />
<glyph unicode="&#xe6;" horiz-adv-x="1527" d="M74.5 299.5q0.5 35.5 23 66.5t63 55.5t118.5 42t190 25.5q97 5 119 5v6q0 212 100 352q-2 18 -5.5 35t-16 42t-31.5 43t-54.5 31t-82.5 13q-114 0 -210 -27t-149 -55l-8 14l13 6q13 7 28 13.5t39.5 16t54.5 17.5t65.5 15.5t78.5 11.5t88 4q213 0 290 -84q119 84 279 84 q62 0 119 -14t109 -46t90 -79.5t59.5 -119t19.5 -159.5h-731q-6 -56 -6 -114q0 -253 89.5 -372.5t234.5 -119.5q204 0 364 62l6 -15q-163 -63 -370 -63q-250 0 -371 164q-39 -67 -115 -115.5t-176 -48.5q-289 0 -313 233q-2 39 -1.5 74.5zM219 225q4 -33 9 -58.5t17 -57 t29.5 -52t47.5 -35t69 -14.5q95 0 170.5 49t110.5 113q-81 121 -84 309q-56 0 -121 -6q-108 -13 -165 -44.5t-73.5 -78.5t-9.5 -125zM735 631h590q-1 101 -23.5 178t-59 120.5t-81 65t-94.5 21.5q-124 0 -215 -102t-117 -283z" />
<glyph unicode="&#xe7;" horiz-adv-x="985" d="M82 500q0 249 135 390.5t344 141.5q118 0 217 -53.5t146 -161.5h-131q-31 100 -93.5 149.5t-138.5 49.5q-146 0 -243 -138.5t-97 -377.5q0 -253 89.5 -372.5t234.5 -119.5q181 0 323 62l6 -15q-144 -63 -329 -63q-77 0 -144 16.5t-126.5 55t-101.5 96t-66.5 144.5 t-24.5 196zM371 -373h63q4 0 10 0.5t22.5 7t29 18.5t22.5 39t10 64v244h144v-244q-2 0 0 -8t-2 -21t-8 -28t-17.5 -31t-31 -28.5t-48.5 -20.5t-69 -8h-125v16z" />
<glyph unicode="&#xe8;" horiz-adv-x="1021" d="M82 500q0 249 135 390.5t344 141.5q62 0 119 -14t109 -46t90 -79.5t59.5 -119t19.5 -159.5h-731q-6 -56 -6 -114q0 -253 89.5 -372.5t234.5 -119.5q204 0 364 62l6 -15q-163 -63 -370 -63q-77 0 -144 16.5t-126.5 55t-101.5 96t-66.5 144.5t-24.5 196zM229 631h590 q-1 101 -23.5 178t-59 120.5t-81 65t-94.5 21.5q-124 0 -215 -102t-117 -283zM311 1454l148 -4l94 -289h-27z" />
<glyph unicode="&#xe9;" horiz-adv-x="1021" d="M82 500q0 249 135 390.5t344 141.5q62 0 119 -14t109 -46t90 -79.5t59.5 -119t19.5 -159.5h-731q-6 -56 -6 -114q0 -253 89.5 -372.5t234.5 -119.5q204 0 364 62l6 -15q-163 -63 -370 -63q-77 0 -144 16.5t-126.5 55t-101.5 96t-66.5 144.5t-24.5 196zM229 631h590 q-1 101 -23.5 178t-59 120.5t-81 65t-94.5 21.5q-124 0 -215 -102t-117 -283zM537 1161l94 289l147 4l-215 -293h-26z" />
<glyph unicode="&#xea;" horiz-adv-x="1021" d="M82 500q0 249 135 390.5t344 141.5q62 0 119 -14t109 -46t90 -79.5t59.5 -119t19.5 -159.5h-731q-6 -56 -6 -114q0 -253 89.5 -372.5t234.5 -119.5q204 0 364 62l6 -15q-163 -63 -370 -63q-77 0 -144 16.5t-126.5 55t-101.5 96t-66.5 144.5t-24.5 196zM229 631h590 q-1 101 -23.5 178t-59 120.5t-81 65t-94.5 21.5q-124 0 -215 -102t-117 -283zM279 1239l280 297l262 -276l-43 -41l-248 266l-237 -256z" />
<glyph unicode="&#xeb;" horiz-adv-x="1021" d="M82 500q0 249 135 390.5t344 141.5q62 0 119 -14t109 -46t90 -79.5t59.5 -119t19.5 -159.5h-731q-6 -56 -6 -114q0 -253 89.5 -372.5t234.5 -119.5q204 0 364 62l6 -15q-163 -63 -370 -63q-77 0 -144 16.5t-126.5 55t-101.5 96t-66.5 144.5t-24.5 196zM229 631h590 q-1 101 -23.5 178t-59 120.5t-81 65t-94.5 21.5q-124 0 -215 -102t-117 -283zM248 1315q0 37 24.5 62.5t61.5 25.5t62.5 -25.5t25.5 -62.5t-25.5 -61.5t-62.5 -24.5t-61.5 24.5t-24.5 61.5zM694 1315q0 37 24.5 62.5t61.5 25.5t62.5 -25.5t25.5 -62.5t-25.5 -61.5 t-62.5 -24.5t-61.5 24.5t-24.5 61.5z" />
<glyph unicode="&#xec;" horiz-adv-x="440" d="M0 1454l147 -4l95 -289h-27zM104 130v15v879h144v-879q0 -37 9.5 -64t23.5 -39t28 -18.5t23 -7.5h10h64v-16h-125q-53 0 -90.5 15t-53.5 36t-24.5 42.5t-8.5 36.5z" />
<glyph unicode="&#xed;" horiz-adv-x="440" d="M104 130v15v879h144v-879q0 -37 9.5 -64t23.5 -39t28 -18.5t23 -7.5h10h64v-16h-125q-53 0 -90.5 15t-53.5 36t-24.5 42.5t-8.5 36.5zM156 1161l94 289l147 4l-215 -293h-26z" />
<glyph unicode="&#xee;" horiz-adv-x="542" d="M0 1239l281 297l262 -276l-43 -41l-248 266l-238 -256zM186 130v15v879h144v-879q0 -37 9.5 -64t23.5 -39t28 -18.5t23 -7.5h10h63v-16h-125q-53 0 -90.5 15t-53 36t-24 42.5t-8.5 36.5z" />
<glyph unicode="&#xef;" horiz-adv-x="708" d="M41 1315q0 37 24.5 62.5t61.5 25.5t62.5 -25.5t25.5 -62.5t-25.5 -61.5t-62.5 -24.5t-61.5 24.5t-24.5 61.5zM281 130v15v879h143v-879q0 -37 9.5 -64t23.5 -39t28 -18.5t23 -7.5h10h64v-16h-125q-53 0 -90.5 15t-53 36t-24 42.5t-8.5 36.5zM487 1315q0 37 24.5 62.5 t61.5 25.5t63 -25.5t26 -62.5q0 -36 -26 -61t-63 -25t-61.5 24.5t-24.5 61.5z" />
<glyph unicode="&#xf0;" horiz-adv-x="1140" d="M78 500q0 249 140.5 390.5t359.5 141.5q193 0 292 -162q-139 292 -366 506l-215 -110l-10 12l213 108q-75 69 -164 134l6 18q119 -58 209 -125l225 117l8 -14l-219 -113q126 -93 225.5 -210t158.5 -233.5t89.5 -227.5t30.5 -208q0 -249 -140.5 -390.5t-359.5 -141.5 q-80 0 -150 16.5t-132 55t-106 96t-69.5 144.5t-25.5 196zM238 500q0 -130 25 -227t70 -154t102 -84t126 -27q146 0 243 138.5t97 377.5q0 97 -17.5 181.5t-53.5 156t-101 113t-151 41.5q-146 0 -243 -138.5t-97 -377.5z" />
<glyph unicode="&#xf1;" horiz-adv-x="1077" d="M82 0v1024h143v-233q35 87 129 164t213 77q86 0 149 -15.5t97.5 -38t54.5 -57.5t25.5 -65.5t5.5 -69.5v-641q0 -37 9.5 -64t23.5 -39t28 -18.5t24 -7.5h9h64v-16h-125q-53 0 -90.5 15t-53 36t-24 42.5t-8.5 36.5v15v643q0 33 -2.5 58t-13.5 59.5t-30 56.5t-56.5 38 t-88.5 16q-67 0 -132.5 -32t-109.5 -77.5t-71 -94.5t-27 -85v-727h-143zM180 1198q12 66 41.5 101t87 38.5t95.5 -2t121 -24.5q24 -5 36 -8q105 -23 165.5 -30.5t94 1.5t45 25.5t21.5 52.5l18 -4q-10 -49 -26.5 -81.5t-39 -49t-50.5 -22.5t-61 -2.5t-70.5 12t-80.5 20.5 q-18 5 -28 8q-183 39 -260 29.5t-92 -70.5z" />
<glyph unicode="&#xf2;" horiz-adv-x="1146" d="M82 500q0 249 140.5 390.5t359.5 141.5q80 0 150 -16.5t132 -55t106 -96t69.5 -144.5t25.5 -196q0 -249 -140.5 -390.5t-359.5 -141.5q-80 0 -150 16.5t-132 55t-106 96t-69.5 144.5t-25.5 196zM221 500q0 -130 26.5 -227t74.5 -154t108.5 -84t134.5 -27 q156 0 258.5 138.5t102.5 377.5q0 130 -26.5 227t-74.5 154t-108.5 84t-134.5 27q-156 0 -258.5 -138.5t-102.5 -377.5zM373 1454l147 -4l94 -289h-26z" />
<glyph unicode="&#xf3;" horiz-adv-x="1146" d="M82 500q0 249 140.5 390.5t359.5 141.5q80 0 150 -16.5t132 -55t106 -96t69.5 -144.5t25.5 -196q0 -249 -140.5 -390.5t-359.5 -141.5q-80 0 -150 16.5t-132 55t-106 96t-69.5 144.5t-25.5 196zM221 500q0 -130 26.5 -227t74.5 -154t108.5 -84t134.5 -27 q156 0 258.5 138.5t102.5 377.5q0 130 -26.5 227t-74.5 154t-108.5 84t-134.5 27q-156 0 -258.5 -138.5t-102.5 -377.5zM598 1161l94 289l148 4l-215 -293h-27z" />
<glyph unicode="&#xf4;" horiz-adv-x="1146" d="M82 500q0 249 140.5 390.5t359.5 141.5q80 0 150 -16.5t132 -55t106 -96t69.5 -144.5t25.5 -196q0 -249 -140.5 -390.5t-359.5 -141.5q-80 0 -150 16.5t-132 55t-106 96t-69.5 144.5t-25.5 196zM221 500q0 -130 26.5 -227t74.5 -154t108.5 -84t134.5 -27 q156 0 258.5 138.5t102.5 377.5q0 130 -26.5 227t-74.5 154t-108.5 84t-134.5 27q-156 0 -258.5 -138.5t-102.5 -377.5zM342 1239l281 297l262 -276l-43 -41l-248 266l-238 -256z" />
<glyph unicode="&#xf5;" horiz-adv-x="1146" d="M82 500q0 249 140.5 390.5t359.5 141.5q80 0 150 -16.5t132 -55t106 -96t69.5 -144.5t25.5 -196q0 -249 -140.5 -390.5t-359.5 -141.5q-80 0 -150 16.5t-132 55t-106 96t-69.5 144.5t-25.5 196zM221 500q0 -130 26.5 -227t74.5 -154t108.5 -84t134.5 -27 q156 0 258.5 138.5t102.5 377.5q0 130 -26.5 227t-74.5 154t-108.5 84t-134.5 27q-156 0 -258.5 -138.5t-102.5 -377.5zM221 1198q12 66 41.5 101t87 38.5t95.5 -2t121 -24.5q24 -5 36 -8q105 -23 165.5 -30.5t94 1.5t45 25.5t21.5 52.5l18 -4q-10 -49 -26.5 -81.5t-39 -49 t-50.5 -22.5t-61 -2.5t-70.5 12t-80.5 20.5q-18 5 -28 8q-183 39 -260 29.5t-92 -70.5z" />
<glyph unicode="&#xf6;" horiz-adv-x="1146" d="M82 500q0 249 140.5 390.5t359.5 141.5q80 0 150 -16.5t132 -55t106 -96t69.5 -144.5t25.5 -196q0 -249 -140.5 -390.5t-359.5 -141.5q-80 0 -150 16.5t-132 55t-106 96t-69.5 144.5t-25.5 196zM221 500q0 -130 26.5 -227t74.5 -154t108.5 -84t134.5 -27 q156 0 258.5 138.5t102.5 377.5q0 130 -26.5 227t-74.5 154t-108.5 84t-134.5 27q-156 0 -258.5 -138.5t-102.5 -377.5zM268 1315q0 37 24.5 62.5t61.5 25.5t62.5 -25.5t25.5 -62.5t-25.5 -61.5t-62.5 -24.5t-61.5 24.5t-24.5 61.5zM715 1315q0 37 24.5 62.5t61.5 25.5 t62.5 -25.5t25.5 -62.5t-25.5 -61.5t-62.5 -24.5t-61.5 24.5t-24.5 61.5z" />
<glyph unicode="&#xf7;" horiz-adv-x="1572" d="M299 526v17h930v-17h-930zM684 215q0 37 24.5 62.5t61.5 25.5t62.5 -25.5t25.5 -62.5t-25.5 -61.5t-62.5 -24.5t-61.5 24.5t-24.5 61.5zM684 836q0 37 24.5 62.5t61.5 25.5t62.5 -25.5t25.5 -62.5t-25.5 -61.5t-62.5 -24.5t-61.5 24.5t-24.5 61.5z" />
<glyph unicode="&#xf8;" horiz-adv-x="1146" d="M82 500q0 249 140.5 390.5t359.5 141.5q80 0 150 -16.5t132 -55t106 -96t69.5 -144.5t25.5 -196q0 -249 -140.5 -390.5t-359.5 -141.5q-80 0 -150 16.5t-132 55t-106 96t-69.5 144.5t-25.5 196zM164 16l840 1008l14 -10l-840 -1010zM221 500q0 -130 26.5 -227t74.5 -154 t108.5 -84t134.5 -27q156 0 258.5 138.5t102.5 377.5q0 130 -26.5 227t-74.5 154t-108.5 84t-134.5 27q-156 0 -258.5 -138.5t-102.5 -377.5z" />
<glyph unicode="&#xf9;" horiz-adv-x="1077" d="M82 238v786h143v-788q0 -33 2.5 -58t13.5 -59.5t30 -56.5t56.5 -38t88.5 -16q66 0 130 30t107.5 74.5t71.5 92t31 84.5v735h143v-879q0 -37 9.5 -64t23.5 -39t28 -18.5t24 -7.5h9h64v-16h-125q-53 0 -90.5 15t-53 36t-24 42.5t-8.5 36.5v15v88q-37 -88 -131 -164.5 t-211 -76.5q-86 0 -149 15.5t-97.5 38t-54.5 57.5t-25.5 65.5t-5.5 69.5zM270 1454l148 -4l94 -289h-27z" />
<glyph unicode="&#xfa;" horiz-adv-x="1077" d="M82 238v786h143v-788q0 -33 2.5 -58t13.5 -59.5t30 -56.5t56.5 -38t88.5 -16q66 0 130 30t107.5 74.5t71.5 92t31 84.5v735h143v-879q0 -37 9.5 -64t23.5 -39t28 -18.5t24 -7.5h9h64v-16h-125q-53 0 -90.5 15t-53 36t-24 42.5t-8.5 36.5v15v88q-37 -88 -131 -164.5 t-211 -76.5q-86 0 -149 15.5t-97.5 38t-54.5 57.5t-25.5 65.5t-5.5 69.5zM496 1161l94 289l147 4l-215 -293h-26z" />
<glyph unicode="&#xfb;" horiz-adv-x="1077" d="M82 238v786h143v-788q0 -33 2.5 -58t13.5 -59.5t30 -56.5t56.5 -38t88.5 -16q66 0 130 30t107.5 74.5t71.5 92t31 84.5v735h143v-879q0 -37 9.5 -64t23.5 -39t28 -18.5t24 -7.5h9h64v-16h-125q-53 0 -90.5 15t-53 36t-24 42.5t-8.5 36.5v15v88q-37 -88 -131 -164.5 t-211 -76.5q-86 0 -149 15.5t-97.5 38t-54.5 57.5t-25.5 65.5t-5.5 69.5zM238 1239l280 297l262 -276l-43 -41l-248 266l-237 -256z" />
<glyph unicode="&#xfc;" horiz-adv-x="1077" d="M82 238v786h143v-788q0 -33 2.5 -58t13.5 -59.5t30 -56.5t56.5 -38t88.5 -16q66 0 130 30t107.5 74.5t71.5 92t31 84.5v735h143v-879q0 -37 9.5 -64t23.5 -39t28 -18.5t24 -7.5h9h64v-16h-125q-53 0 -90.5 15t-53 36t-24 42.5t-8.5 36.5v15v88q-37 -88 -131 -164.5 t-211 -76.5q-86 0 -149 15.5t-97.5 38t-54.5 57.5t-25.5 65.5t-5.5 69.5zM186 1315q0 37 24.5 62.5t61.5 25.5t62.5 -25.5t25.5 -62.5t-25.5 -61.5t-62.5 -24.5t-61.5 24.5t-24.5 61.5zM633 1315q0 37 24.5 62.5t61.5 25.5t62.5 -25.5t25.5 -62.5t-25.5 -61.5t-62.5 -24.5 t-61.5 24.5t-24.5 61.5z" />
<glyph unicode="&#xfd;" horiz-adv-x="995" d="M72 -481q96 -27 151 2t92 112l172 367h-2l-381 1024h144l317 -854l314 649q3 5 7 14t11 34t8.5 48t-6.5 50.5t-29 46.5l13 12q3 -2 8 -6.5t15.5 -22t15 -38.5t0 -58t-22.5 -80l-393 -819l-172 -367q-26 -58 -56 -91.5t-65 -44t-66 -9t-75 13.5v17zM557 1161l94 289l148 4 l-215 -293h-27z" />
<glyph unicode="&#xfe;" horiz-adv-x="1064" d="M82 -512v2048h143v-766q15 42 46 86t74 84.5t101.5 66t120.5 25.5q211 0 313.5 -125.5t102.5 -361.5q0 -553 -537 -553q-98 0 -221 45v-549h-143zM225 55q123 -47 219 -47q396 0 396 539q0 469 -275 469q-66 0 -130 -34t-107.5 -83t-71.5 -100.5t-31 -89.5v-654z" />
<glyph unicode="&#xff;" horiz-adv-x="995" d="M72 -481q96 -27 151 2t92 112l172 367h-2l-381 1024h144l317 -854l314 649q3 5 7 14t11 34t8.5 48t-6.5 50.5t-29 46.5l13 12q3 -2 8 -6.5t15.5 -22t15 -38.5t0 -58t-22.5 -80l-393 -819l-172 -367q-26 -58 -56 -91.5t-65 -44t-66 -9t-75 13.5v17zM227 1315 q0 37 24.5 62.5t61.5 25.5t62.5 -25.5t25.5 -62.5t-25.5 -61.5t-62.5 -24.5t-61.5 24.5t-24.5 61.5zM674 1315q0 37 24.5 62.5t61.5 25.5t62.5 -25.5t25.5 -62.5t-25.5 -61.5t-62.5 -24.5t-61.5 24.5t-24.5 61.5z" />
<glyph unicode="&#x152;" horiz-adv-x="1570" d="M102 713q0 168 49 306.5t135 230t202 142t249 50.5q74 0 131 -8h586v-21h-461v-614h414v-21h-414v-758h506v-20h-657q-70 -8 -105 -8q-113 0 -203.5 19.5t-173 69.5t-138 130t-88 207t-32.5 295zM272 717q0 -160 24 -283.5t65 -202.5t101 -129t127 -70t148 -20 q33 0 86 11v1390q-39 8 -86 8q-97 0 -181.5 -47.5t-147.5 -135t-99.5 -222t-36.5 -299.5z" />
<glyph unicode="&#x153;" horiz-adv-x="61" />
<glyph unicode="&#x178;" horiz-adv-x="1107" d="M61 1434h175l391 -924l356 719q2 5 5.5 14t10 34t8 48t-6 50.5t-25.5 45.5l16 13q3 -3 7.5 -8t14.5 -23.5t14 -40.5t0.5 -58t-19.5 -75l-367 -744v-485h-170v440zM426 1724q0 37 24.5 62.5t61.5 25.5t62.5 -25.5t25.5 -62.5t-25.5 -61.5t-62.5 -24.5t-61.5 24.5 t-24.5 61.5zM872 1724q0 37 24.5 62.5t61.5 25.5t63 -25.5t26 -62.5q0 -36 -26 -61t-63 -25t-61.5 24.5t-24.5 61.5z" />
<glyph unicode="&#x2c6;" horiz-adv-x="821" d="M135 1239l281 297l262 -276l-43 -41l-248 266l-237 -256z" />
<glyph unicode="&#x2dc;" horiz-adv-x="1228" d="M262 1198q12 66 41.5 101t87 38.5t95.5 -2t121 -24.5q24 -5 36 -8q105 -23 165.5 -30.5t94 1.5t45 25.5t21.5 52.5l18 -4q-10 -49 -26.5 -81.5t-39 -49t-50.5 -22.5t-61 -2.5t-70.5 12t-80.5 20.5q-18 5 -28 8q-183 39 -260 29.5t-92 -70.5z" />
<glyph unicode="&#x2000;" horiz-adv-x="950" />
<glyph unicode="&#x2001;" horiz-adv-x="1901" />
<glyph unicode="&#x2002;" horiz-adv-x="950" />
<glyph unicode="&#x2003;" horiz-adv-x="1901" />
<glyph unicode="&#x2004;" horiz-adv-x="633" />
<glyph unicode="&#x2005;" horiz-adv-x="475" />
<glyph unicode="&#x2006;" horiz-adv-x="316" />
<glyph unicode="&#x2007;" horiz-adv-x="316" />
<glyph unicode="&#x2008;" horiz-adv-x="237" />
<glyph unicode="&#x2009;" horiz-adv-x="380" />
<glyph unicode="&#x200a;" horiz-adv-x="105" />
<glyph unicode="&#x2010;" horiz-adv-x="819" d="M94 584v16h619v-16h-619z" />
<glyph unicode="&#x2011;" horiz-adv-x="819" d="M94 584v16h619v-16h-619z" />
<glyph unicode="&#x2012;" horiz-adv-x="819" d="M94 584v16h619v-16h-619z" />
<glyph unicode="&#x2013;" horiz-adv-x="1230" d="M164 526v17h930v-17h-930z" />
<glyph unicode="&#x2014;" horiz-adv-x="1435" d="M164 526v17h1134v-17h-1134z" />
<glyph unicode="&#x2018;" horiz-adv-x="532" d="M168 1452q0 35 24 59.5t58 24.5t59 -24.5t25 -59.5q0 -32 -25 -57t-59 -25h-6l43 -293h-27q-92 356 -92 375z" />
<glyph unicode="&#x2019;" horiz-adv-x="532" d="M168 1452q0 35 25 59.5t59 24.5t58 -24.5t24 -59.5q0 -19 -92 -375h-27l43 293h-6q-34 0 -59 25t-25 57z" />
<glyph unicode="&#x201a;" horiz-adv-x="532" d="M190 121q0 35 25 59.5t59 24.5t58 -24.5t24 -59.5q0 -19 -92 -375h-26l43 293h-7q-34 0 -59 25t-25 57z" />
<glyph unicode="&#x201c;" horiz-adv-x="722" d="M168 1452q0 35 24 59.5t58 24.5t59 -24.5t25 -59.5q0 -32 -25 -57t-59 -25h-6l43 -293h-27q-92 356 -92 375zM393 1452q0 35 24 59.5t58 24.5t59 -24.5t25 -59.5q0 -32 -25 -57t-59 -25h-6l43 -293h-27q-92 356 -92 375z" />
<glyph unicode="&#x201d;" horiz-adv-x="722" d="M168 1452q0 35 25 59.5t59 24.5t58 -24.5t24 -59.5q0 -19 -92 -375h-27l43 293h-6q-34 0 -59 25t-25 57zM393 1452q0 35 25 59.5t59 24.5t58 -24.5t24 -59.5q0 -19 -92 -375h-27l43 293h-6q-34 0 -59 25t-25 57z" />
<glyph unicode="&#x201e;" horiz-adv-x="819" d="M168 121q0 35 25 59.5t59 24.5t58 -24.5t24 -59.5q0 -19 -92 -375h-27l43 293h-6q-34 0 -59 25t-25 57zM393 121q0 35 25 59.5t59 24.5t58 -24.5t24 -59.5q0 -19 -92 -375h-27l43 293h-6q-34 0 -59 25t-25 57z" />
<glyph unicode="&#x2022;" horiz-adv-x="970" d="M205 872q0 65 42.5 132t106 109t121.5 42q91 0 182 -92.5t91 -190.5q0 -63 -43 -129t-107.5 -107.5t-122.5 -41.5q-91 0 -180.5 90.5t-89.5 187.5z" />
<glyph unicode="&#x2026;" horiz-adv-x="675" d="M57 57q0 28 19 47t47 19q27 0 46 -19.5t19 -46.5q0 -26 -19.5 -45.5t-45.5 -19.5q-27 0 -46.5 19t-19.5 46zM283 57q0 28 18.5 47t46.5 19q27 0 46.5 -19.5t19.5 -46.5q0 -26 -20 -45.5t-46 -19.5q-27 0 -46 19t-19 46zM508 57q0 28 18.5 47t46.5 19q27 0 46.5 -19.5 t19.5 -46.5q0 -26 -20 -45.5t-46 -19.5q-27 0 -46 19t-19 46z" />
<glyph unicode="&#x202f;" horiz-adv-x="380" />
<glyph unicode="&#x2039;" horiz-adv-x="892" d="M205 530l500 289v-16l-367 -273l367 -272v-16z" />
<glyph unicode="&#x203a;" horiz-adv-x="892" d="M205 242v16l366 272l-366 273v16l500 -289z" />
<glyph unicode="&#x205f;" horiz-adv-x="475" />
<glyph unicode="&#x2122;" horiz-adv-x="1021" d="M143 1427v7h254v-7h-102v-409h-49v409h-103zM500 1018l51 416h18l125 -383l125 383h19l51 -416h-49l-41 332l-107 -332h-37l-108 328l-41 -328h-6z" />
<glyph unicode="&#x25fc;" horiz-adv-x="1024" d="M0 0v1024h1024v-1024h-1024z" />
</font>
</defs>
</svg>
